<?xml version="1.0" encoding="iso-8859-1"?>
<!-- Generator: Adobe Illustrator 18.0.0, SVG Export Plug-In . SVG Version: 6.00 Build 0)  -->
<!DOCTYPE svg PUBLIC "-//W3C//DTD SVG 1.1//EN" "http://www.w3.org/Graphics/SVG/1.1/DTD/svg11.dtd">
<svg version="1.1" id="Capa_1" xmlns="http://www.w3.org/2000/svg" xmlns:xlink="http://www.w3.org/1999/xlink" x="0px" y="0px"
	 viewBox="0 0 56 56" style="enable-background:new 0 0 56 56;" xml:space="preserve">
<g>
	<path d="M44.106,13.556C46.517,10.361,48,6.14,48,1.5h-2c0,8.822-5.832,16-13,16v2c3.408,0,6.545-1.387,9.066-3.694
		C42.724,22.364,48.272,27.5,55,27.5h1v-1C56,19.705,50.758,14.12,44.106,13.556z"/>
	<path d="M5,44.5c-2.757,0-5,2.243-5,5s2.243,5,5,5s5-2.243,5-5S7.757,44.5,5,44.5z"/>
	<path d="M9,33.5c2.757,0,5-2.243,5-5s-2.243-5-5-5s-5,2.243-5,5S6.243,33.5,9,33.5z"/>
	<path d="M15,42.5c-1.884,0-3.609,1.081-4.453,2.739C11.488,46.46,12,47.95,12,49.5c0,0.606-0.081,1.21-0.24,1.801
		C12.664,52.078,13.795,52.5,15,52.5c2.757,0,5-2.243,5-5S17.757,42.5,15,42.5z"/>
	<path d="M12,40.5c0-2.757-2.243-5-5-5s-5,2.243-5,5c0,0.856,0.215,1.679,0.626,2.416C3.386,42.64,4.182,42.5,5,42.5
		c1.461,0,2.884,0.466,4.063,1.307c0.692-1.105,1.688-2.004,2.877-2.584C11.98,40.972,12,40.733,12,40.5z"/>
	<path d="M25,39.5c-2.176,0-4.055,1.372-4.733,3.395C21.389,44.171,22,45.785,22,47.5c0,0.312-0.022,0.627-0.066,0.944
		C22.81,49.128,23.88,49.5,25,49.5c2.757,0,5-2.243,5-5S27.757,39.5,25,39.5z"/>
	<path d="M22,36.5c0-2.757-2.243-5-5-5c-0.645,0-1.272,0.124-1.87,0.367c-0.64,1.16-1.603,2.123-2.762,2.762
		c-0.138,0.341-0.237,0.695-0.296,1.057c1.229,1.294,1.925,3.017,1.928,4.803c0.035,0.026,0.07,0.051,0.105,0.077
		C14.419,40.521,14.715,40.5,15,40.5c1.145,0,2.272,0.284,3.286,0.826c0.2-0.058,0.406-0.133,0.622-0.227
		c0.63-1.127,1.57-2.067,2.695-2.698C21.867,37.779,22,37.141,22,36.5z"/>
	<path d="M27,29.5c-0.453,0-0.911,0.068-1.368,0.204c-0.458,1.382-1.332,2.581-2.493,3.436C23.705,34.164,24,35.308,24,36.5
		c0,0.362-0.03,0.725-0.091,1.086C24.269,37.529,24.634,37.5,25,37.5c1.55,0,3.04,0.512,4.261,1.453
		C30.919,38.109,32,36.384,32,34.5C32,31.743,29.757,29.5,27,29.5z"/>
	<path d="M35,35.5c-0.371,0-0.742,0.043-1.109,0.128c-0.326,2-1.502,3.753-3.199,4.812c0.841,1.177,1.307,2.595,1.308,4.053
		c0.866,0.653,1.915,1.008,3,1.008c2.757,0,5-2.243,5-5S37.757,35.5,35,35.5z"/>
	<path d="M36.702,25.51c-0.633,2.103-2.244,3.802-4.293,4.558c0.838,1.022,1.373,2.263,1.537,3.571
		C34.479,33.542,34.935,33.5,35,33.5c1.55,0,3.04,0.512,4.261,1.453C40.919,34.109,42,32.384,42,30.5
		C42,27.644,39.567,25.328,36.702,25.51z"/>
	<path d="M19.592,19.853c0.137,0.251,0.301,0.497,0.49,0.732c1.129,0.176,2.192,0.627,3.104,1.311
		c0.646-2.745,2.913-4.872,5.73-5.312C28.484,14.263,26.444,12.5,24,12.5c-1.854,0-3.544,1.026-4.409,2.645
		C19.863,15.902,20,16.692,20,17.5C20,18.307,19.863,19.097,19.592,19.853z"/>
	<path d="M10.146,21.6c0.856,0.141,1.666,0.435,2.411,0.876C12.703,22.491,12.85,22.5,13,22.5c2.757,0,5-2.243,5-5s-2.243-5-5-5
		s-5,2.243-5,5C8,19.144,8.798,20.662,10.146,21.6z"/>
	<path d="M15.367,24.087c-0.185,0.194-0.35,0.397-0.496,0.606C15.603,25.823,16,27.15,16,28.5c0,0.366-0.029,0.728-0.085,1.084
		C16.271,29.528,16.634,29.5,17,29.5c1.874,0,3.629,0.735,4.936,2.043C23.225,30.61,24,29.12,24,27.5c0-0.15-0.01-0.299-0.025-0.445
		c-0.442-0.747-0.736-1.557-0.877-2.415c-1.149-1.672-3.293-2.533-5.39-1.963C17.028,23.294,16.228,23.777,15.367,24.087z"/>
	<path d="M25,23.5c0,1.583,0.744,3.056,2.005,4c1.248,0.001,2.463,0.333,3.535,0.963C33.064,28.193,35,26.068,35,23.5
		c0-2.757-2.243-5-5-5S25,20.743,25,23.5z"/>
</g>
<g>
</g>
<g>
</g>
<g>
</g>
<g>
</g>
<g>
</g>
<g>
</g>
<g>
</g>
<g>
</g>
<g>
</g>
<g>
</g>
<g>
</g>
<g>
</g>
<g>
</g>
<g>
</g>
<g>
</g>
</svg>
