<?xml version="1.0" encoding="iso-8859-1"?>
<!-- Generator: Adobe Illustrator 19.0.0, SVG Export Plug-In . SVG Version: 6.00 Build 0)  -->
<svg version="1.1" id="Capa_1" xmlns="http://www.w3.org/2000/svg" xmlns:xlink="http://www.w3.org/1999/xlink" x="0px" y="0px"
	 viewBox="0 0 512 512" style="enable-background:new 0 0 512 512;" xml:space="preserve">
<g>
	<g>
		<path d="M101.5,245.3C86.833,240.894,61.313,242,46,242c-6.899,0-12.9,4.799-14.7,11.7c-1.5,6.599,1.8,13.499,8.101,16.8
			c15.177,7.228,26.067,14.131,37.2,31.5h93.9C159.311,272.932,118.99,245.3,101.5,245.3z"/>
	</g>
</g>
<g>
	<g>
		<path d="M217.598,221.3c-8.099-8.401-16.5-16.201-24.899-23.101c-6-5.099-12.301-9.6-18.3-13.801
			c-5.7-3.6-13.2-2.999-18.301,1.201c-5.099,4.799-6.599,11.999-3.6,17.999c3.902,8.102,8.703,22.801,11.101,41.101
			c17.701,15,31.5,34.801,39.6,57.301H264.4C255.399,270.799,238,243.5,217.598,221.3z"/>
	</g>
</g>
<g>
	<g>
		<path d="M480.7,253.7c-1.8-6.901-7.8-11.7-14.7-11.7c-32.272,0-57.891-2.878-89.099,18.3c-0.601,14.099,0,28.801,2.098,41.7h56.4
			c11.133-17.369,22.022-24.272,37.2-31.5C478.9,267.199,482.199,260.3,480.7,253.7z"/>
	</g>
</g>
<g>
	<g>
		<path d="M436,332c-126.118,0-233.908,0-360,0c-8.291,0-15,6.709-15,15c0,8.291,6.709,15,15,15h15.76
			c7.614,83.969,78.322,150,164.24,150s156.627-66.031,164.24-150H436c8.291,0,15-6.709,15-15C451,338.709,444.291,332,436,332z"/>
	</g>
</g>
<g>
	<g>
		<path d="M295,110.6l-8.399-32.901C295.3,69.6,301,57.9,301,45c0-24.901-20.099-45-45-45s-45,20.099-45,45
			c0,12.9,5.7,24.6,14.399,32.699L217,110.6l-15.6,56.1c8.401,6.301,17.1,13.5,25.201,21.301l18.6-66.901l8.099-31.399
			c0.901,0,1.8,0.3,2.701,0.3c0.901,0,1.8-0.3,2.701-0.3l8.099,31.399l18.6,66.901c8.101-7.8,16.8-15,25.201-21.301L295,110.6z
			 M256,60c-8.401,0-15-6.601-15-15c0-8.401,6.599-15,15-15c8.401,0,15,6.599,15,15C271,53.399,264.401,60,256,60z"/>
	</g>
</g>
<g>
	<g>
		<path d="M355.9,185.6c-5.101-4.2-12.601-4.801-18.301-1.201c-5.999,4.2-12.299,8.701-18.3,13.801
			c-8.399,6.899-16.8,14.7-24.6,23.101v0.299c-7.5,8.099-14.7,16.8-20.999,26.1c9.3,16.8,17.098,35.099,21.599,54.3H348.7
			c-0.601-3.6-0.901-7.2-1.201-11.1c-2.699-31.201,1.5-66,12.001-87.301C362.499,197.599,361,190.399,355.9,185.6z"/>
	</g>
</g>
<g>
</g>
<g>
</g>
<g>
</g>
<g>
</g>
<g>
</g>
<g>
</g>
<g>
</g>
<g>
</g>
<g>
</g>
<g>
</g>
<g>
</g>
<g>
</g>
<g>
</g>
<g>
</g>
<g>
</g>
</svg>
