<svg width="916" height="588" viewBox="0 0 916 588" fill="none" xmlns="http://www.w3.org/2000/svg">
<rect width="916" height="588" fill="#E5E5E5"/>
<g clip-path="url(#clip0)">
<path d="M248.807 196.96C289.124 196.96 321.807 164.277 321.807 123.96C321.807 83.6432 289.124 50.96 248.807 50.96C208.49 50.96 175.807 83.6432 175.807 123.96C175.807 164.277 208.49 196.96 248.807 196.96Z" fill="#FF6584"/>
<path d="M636.807 425.96H40.957L255.127 119.74L338.877 0L402.627 91.14L636.807 425.96Z" fill="#F2F2F2"/>
<path d="M610.779 115.96L393.956 425.96H827.602L610.779 115.96L393.956 425.96H827.602L610.779 115.96Z" fill="#F2F2F2"/>
<path d="M338.877 -9.53674e-06L343.807 85.96L327.516 209.655C327.516 209.655 462.083 280.503 462.445 283.731C462.807 286.96 434.098 377.796 434.098 377.796L636.807 425.96L338.877 -9.53674e-06Z" fill="#E6E6E6"/>
<path d="M610.779 115.96L646.13 199.138L708.807 324.96L745.909 343.929C745.909 343.929 743.476 373.392 743.642 377.176C743.807 380.96 827.602 425.96 827.602 425.96L610.779 115.96Z" fill="#E6E6E6"/>
<path d="M915 425.96H1C0.734784 425.96 0.480429 425.855 0.292892 425.667C0.105356 425.48 0 425.225 0 424.96C0 424.695 0.105356 424.44 0.292892 424.253C0.480429 424.065 0.734784 423.96 1 423.96H915C915.265 423.96 915.52 424.065 915.707 424.253C915.895 424.44 916 424.695 916 424.96C916 425.225 915.895 425.48 915.707 425.667C915.52 425.855 915.265 425.96 915 425.96Z" fill="#CCCCCC"/>
<path d="M202.571 366.789C245.779 366.789 280.807 331.762 280.807 288.553C280.807 245.344 245.779 210.316 202.571 210.316C159.362 210.316 124.334 245.344 124.334 288.553C124.334 331.762 159.362 366.789 202.571 366.789Z" fill="#CCCCCC"/>
<path opacity="0.2" d="M144.803 236.297C137.505 253.367 136.515 272.477 142.01 290.21C147.505 307.944 159.126 323.145 174.797 333.099C190.468 343.053 209.168 347.11 227.556 344.546C245.943 341.981 262.819 332.962 275.168 319.1C270.71 329.529 264.038 338.865 255.614 346.46C247.19 354.055 237.215 359.727 226.381 363.084C215.547 366.442 204.113 367.403 192.87 365.903C181.628 364.402 170.846 360.475 161.272 354.394C151.697 348.313 143.56 340.223 137.422 330.684C131.285 321.146 127.295 310.387 125.729 299.154C124.162 287.92 125.057 276.48 128.35 265.627C131.644 254.773 137.258 244.765 144.803 236.297V236.297Z" fill="black"/>
<path d="M202.785 288.553H203.001L206.869 510.366H198.702L202.785 288.553Z" fill="#3F3D56"/>
<path d="M303.571 463.976C340.704 463.976 370.807 433.873 370.807 396.739C370.807 359.606 340.704 329.503 303.571 329.503C266.437 329.503 236.334 359.606 236.334 396.739C236.334 433.873 266.437 463.976 303.571 463.976Z" fill="black"/>
<path opacity="0.2" d="M253.925 351.831C247.654 366.501 246.803 382.924 251.525 398.164C256.247 413.404 266.234 426.468 279.702 435.023C293.17 443.577 309.241 447.064 325.043 444.86C340.845 442.656 355.348 434.905 365.961 422.992C362.13 431.955 356.396 439.978 349.156 446.505C341.917 453.032 333.344 457.907 324.034 460.792C314.723 463.677 304.896 464.504 295.234 463.214C285.572 461.924 276.306 458.55 268.078 453.323C259.85 448.097 252.857 441.145 247.582 432.947C242.308 424.75 238.879 415.504 237.533 405.85C236.186 396.196 236.955 386.364 239.786 377.037C242.616 367.709 247.441 359.109 253.925 351.831V351.831Z" fill="black"/>
<path d="M303.755 396.739H303.94L307.265 587.366H300.246L303.755 396.739Z" fill="#3F3D56"/>
<path d="M395.042 295.43C447.086 295.43 489.277 253.239 489.277 201.195C489.277 149.15 447.086 106.96 395.042 106.96C342.997 106.96 300.807 149.15 300.807 201.195C300.807 253.239 342.997 295.43 395.042 295.43Z" fill="black"/>
<path opacity="0.2" d="M464.622 138.253C473.412 158.815 474.604 181.832 467.986 203.191C461.368 224.551 447.37 242.861 428.494 254.851C409.619 266.84 387.095 271.726 364.948 268.638C342.801 265.549 322.474 254.685 307.599 237.989C312.968 250.551 321.005 261.795 331.152 270.943C341.298 280.091 353.313 286.924 366.362 290.967C379.412 295.011 393.184 296.169 406.726 294.362C420.267 292.554 433.254 287.824 444.786 280.5C456.318 273.175 466.12 263.431 473.512 251.942C480.904 240.453 485.71 227.494 487.597 213.963C489.484 200.433 488.406 186.654 484.439 173.581C480.472 160.508 473.71 148.454 464.622 138.253V138.253Z" fill="black"/>
<path d="M394.783 201.195H394.524L389.864 468.366H399.702L394.783 201.195Z" fill="#3F3D56"/>
<path d="M538.763 116.587L551.558 106.354C541.618 105.257 537.534 110.678 535.862 114.969C528.097 111.745 519.644 115.97 519.644 115.97L545.244 125.264C543.952 121.815 541.704 118.805 538.763 116.587V116.587Z" fill="#3F3D56"/>
<path d="M555.346 36.8287L568.141 26.5953C558.202 25.4987 554.117 30.9196 552.446 35.2103C544.681 31.9858 536.227 36.2116 536.227 36.2116L561.827 45.5054C560.536 42.0559 558.288 39.046 555.346 36.8287V36.8287Z" fill="#3F3D56"/>
<path d="M647.474 120.781L660.269 110.548C650.329 109.451 646.245 114.872 644.574 119.163C636.808 115.938 628.355 120.164 628.355 120.164L653.955 129.458C652.663 126.008 650.415 122.999 647.474 120.781V120.781Z" fill="#3F3D56"/>
</g>
<defs>
<clipPath id="clip0">
<rect width="916" height="587.366" fill="white"/>
</clipPath>
</defs>
</svg>
