<svg height="512" viewBox="0 0 46 57" width="512" xmlns="http://www.w3.org/2000/svg"><g id="Page-1" fill="none" fill-rule="evenodd"><g id="085---Hanging-Basket" fill="rgb(0,0,0)" fill-rule="nonzero" transform="translate(0 -1)"><path id="Shape" d="m22 9.669-6.5 8.775c-.9408689-.5953831-1.9859294-1.0072998-3.08-1.214 1.0279375 1.347311 1.9001505 2.8065904 2.6 4.35 1.0984991 2.4375047 1.8071425 5.0324891 2.1 7.69.9837655 2.12395 1.5992039 4.3997195 1.82 6.73h3.05c-.05-2-.22-6.52-.94-8.68-.874-2.64-1.977-5.567-4-7.611l5.95-8.029 5.948 8.029c-2.021 2.044-3.124 4.97-4 7.6-.72 2.17-.9 6.69-.94 8.69h3.05c.2207961-2.3302805.8362345-4.60605 1.82-6.73.2928575-2.6575109 1.0015009-5.2524953 2.1-7.69.6998495-1.5434096 1.5720625-3.002689 2.6-4.35-1.0934462.2072493-2.1378112.6194986-3.078 1.215l-6.5-8.775v-2.669c-.0060644-.05865981-.0177856-.11659596-.035-.173 1.3900848-.47224221 2.2341937-1.88112773 1.9948713-3.32960045-.2393223-1.44847272-1.4917608-2.51095847-2.9598713-2.51095847s-2.720549 1.06248575-2.9598713 2.51095847c-.2393224 1.44847272.6047865 2.85735824 1.9948713 3.32960045-.0172144.05640404-.0289356.11434019-.035.173z"/><path id="Shape" d="m29.06 36h4.85c-.18-4.36 2.37-9.59 3.98-12.45-7.26 2.44-8.59 9.76-8.83 12.45z"/><path id="Shape" d="m36.21 32.91c-.23405 1.0125548-.3349023 2.0513333-.3 3.09h3.15c.1054174-.8745444.3239095-1.7317056.65-2.55.6365016-1.5292321 1.5180652-2.9444626 2.61-4.19-1.4001219.2678728-2.7306982.8191602-3.91 1.62-.8310325.5624514-1.5726733 1.2467836-2.2 2.03z"/><path id="Shape" d="m44 38h-42c-1.10320187.0032948-1.9967052.8967981-2 2h46c-.0032948-1.1032019-.8967981-1.9967052-2-2z"/><path id="Shape" d="m3 43c.00444713.6693026.05456356 1.3375216.15 2h16.85c.5522847 0 1 .4477153 1 1s-.4477153 1-1 1h-16.44c1.80054022 6.4909241 7.7039851 10.9880081 14.44 11h10c8.2801595-.0099183 14.9900817-6.7198405 15-15v-1h-40zm21 2h1c.5522847 0 1 .4477153 1 1s-.4477153 1-1 1h-1c-.5522847 0-1-.4477153-1-1s.4477153-1 1-1z"/><path id="Shape" d="m12.09 36h4.85c-.24-2.69-1.57-10.01-8.83-12.45 1.61 2.86 4.16 8.09 3.98 12.45z"/><path id="Shape" d="m6.94 36h3.15c.0353499-1.0353755-.0655136-2.0709072-.3-3.08-.62719565-.7861868-1.36878088-1.4738385-2.2-2.04-1.17930177-.8008398-2.50987812-1.3521272-3.91-1.62 1.0919348 1.2455374 1.9734984 2.6607679 2.61 4.19.32609049.8182944.54458258 1.6754556.65 2.55z"/></g></g></svg>