<svg width="639" height="315" viewBox="0 0 639 315" fill="none" xmlns="http://www.w3.org/2000/svg">
<rect width="639" height="315" fill="#E5E5E5"/>
<path d="M133.828 173.562H48.0469L28.7812 227H0.9375L79.125 22.25H102.75L181.078 227H153.375L133.828 173.562ZM56.2031 151.344H125.812L90.9375 55.5781L56.2031 151.344Z" fill="black"/>
<path d="M38 160.5H601" stroke="black" stroke-width="15"/>
<path d="M174.637 119.664C174.637 113.734 176.008 109.023 178.75 105.531C181.493 102.016 185.125 100.258 189.649 100.258C194.289 100.258 197.91 101.898 200.512 105.18L200.828 100.961H206.77V138.086C206.77 143.008 205.305 146.887 202.375 149.723C199.469 152.559 195.555 153.977 190.633 153.977C187.891 153.977 185.207 153.391 182.582 152.219C179.957 151.047 177.953 149.441 176.571 147.402L179.946 143.5C182.735 146.945 186.145 148.668 190.176 148.668C193.34 148.668 195.801 147.777 197.559 145.996C199.34 144.215 200.231 141.707 200.231 138.473V135.203C197.629 138.203 194.078 139.703 189.578 139.703C185.125 139.703 181.516 137.91 178.75 134.324C176.008 130.738 174.637 125.852 174.637 119.664ZM181.176 120.402C181.176 124.691 182.055 128.066 183.813 130.527C185.571 132.965 188.032 134.184 191.196 134.184C195.297 134.184 198.309 132.32 200.231 128.594V111.227C198.239 107.594 195.25 105.777 191.266 105.777C188.102 105.777 185.629 107.008 183.848 109.469C182.067 111.93 181.176 115.574 181.176 120.402ZM235 106.797C234.016 106.633 232.95 106.551 231.801 106.551C227.535 106.551 224.641 108.367 223.118 112V139H216.614V100.961H222.942L223.047 105.355C225.18 101.957 228.203 100.258 232.118 100.258C233.383 100.258 234.344 100.422 235 100.75V106.797ZM248.078 139H241.575V100.961H248.078V139ZM241.047 90.8711C241.047 89.8164 241.364 88.9258 241.996 88.1992C242.653 87.4727 243.614 87.1094 244.879 87.1094C246.145 87.1094 247.106 87.4727 247.762 88.1992C248.418 88.9258 248.746 89.8164 248.746 90.8711C248.746 91.9258 248.418 92.8047 247.762 93.5078C247.106 94.2109 246.145 94.5625 244.879 94.5625C243.614 94.5625 242.653 94.2109 241.996 93.5078C241.364 92.8047 241.047 91.9258 241.047 90.8711ZM273.778 134.395C276.098 134.395 278.125 133.691 279.86 132.285C281.594 130.879 282.555 129.121 282.743 127.012H288.895C288.778 129.191 288.028 131.266 286.645 133.234C285.262 135.203 283.41 136.773 281.09 137.945C278.793 139.117 276.356 139.703 273.778 139.703C268.598 139.703 264.473 137.98 261.403 134.535C258.356 131.066 256.832 126.332 256.832 120.332V119.242C256.832 115.539 257.512 112.246 258.871 109.363C260.231 106.48 262.176 104.242 264.707 102.648C267.262 101.055 270.274 100.258 273.743 100.258C278.008 100.258 281.547 101.535 284.36 104.09C287.196 106.645 288.707 109.961 288.895 114.039H282.743C282.555 111.578 281.618 109.562 279.93 107.992C278.266 106.398 276.203 105.602 273.743 105.602C270.438 105.602 267.871 106.797 266.043 109.188C264.239 111.555 263.336 114.988 263.336 119.488V120.719C263.336 125.102 264.239 128.477 266.043 130.844C267.848 133.211 270.426 134.395 273.778 134.395ZM319.692 135.238C317.16 138.215 313.446 139.703 308.547 139.703C304.493 139.703 301.399 138.531 299.266 136.188C297.157 133.82 296.09 130.328 296.067 125.711V100.961H302.571V125.535C302.571 131.301 304.914 134.184 309.602 134.184C314.571 134.184 317.875 132.332 319.516 128.629V100.961H326.02V139H319.832L319.692 135.238ZM343 139H336.496V85H343V139ZM362.266 91.75V100.961H369.368V105.988H362.266V129.578C362.266 131.102 362.582 132.25 363.215 133.023C363.848 133.773 364.926 134.148 366.45 134.148C367.2 134.148 368.231 134.008 369.543 133.727V139C367.832 139.469 366.168 139.703 364.551 139.703C361.645 139.703 359.453 138.824 357.977 137.066C356.5 135.309 355.762 132.812 355.762 129.578V105.988H348.836V100.961H355.762V91.75H362.266ZM400.481 135.238C397.95 138.215 394.235 139.703 389.336 139.703C385.282 139.703 382.188 138.531 380.055 136.188C377.946 133.82 376.879 130.328 376.856 125.711V100.961H383.36V125.535C383.36 131.301 385.703 134.184 390.391 134.184C395.36 134.184 398.664 132.332 400.305 128.629V100.961H406.809V139H400.621L400.481 135.238ZM435.11 106.797C434.125 106.633 433.059 106.551 431.91 106.551C427.645 106.551 424.75 108.367 423.227 112V139H416.723V100.961H423.051L423.157 105.355C425.289 101.957 428.313 100.258 432.227 100.258C433.493 100.258 434.453 100.422 435.11 100.75V106.797ZM456.203 139.703C451.047 139.703 446.852 138.016 443.618 134.641C440.383 131.242 438.766 126.707 438.766 121.035V119.84C438.766 116.066 439.481 112.703 440.91 109.75C442.364 106.773 444.379 104.453 446.957 102.789C449.559 101.102 452.371 100.258 455.395 100.258C460.34 100.258 464.184 101.887 466.926 105.145C469.668 108.402 471.039 113.066 471.039 119.137V121.844H445.27C445.364 125.594 446.453 128.629 448.539 130.949C450.649 133.246 453.321 134.395 456.555 134.395C458.852 134.395 460.797 133.926 462.391 132.988C463.985 132.051 465.379 130.809 466.575 129.262L470.547 132.355C467.36 137.254 462.578 139.703 456.203 139.703ZM455.395 105.602C452.77 105.602 450.567 106.562 448.785 108.484C447.004 110.383 445.903 113.055 445.481 116.5H464.535V116.008C464.348 112.703 463.457 110.148 461.864 108.344C460.27 106.516 458.114 105.602 455.395 105.602Z" fill="black"/>
<path d="M450.734 220.285C449 222.77 446.574 224.633 443.457 225.875C440.363 227.094 436.754 227.703 432.629 227.703C428.457 227.703 424.754 226.73 421.52 224.785C418.285 222.816 415.777 220.027 413.996 216.418C412.238 212.809 411.336 208.625 411.289 203.867V199.402C411.289 191.691 413.082 185.715 416.668 181.473C420.277 177.23 425.34 175.109 431.855 175.109C437.199 175.109 441.5 176.48 444.758 179.223C448.016 181.941 450.008 185.809 450.734 190.824H443.984C442.719 184.051 438.688 180.664 431.891 180.664C427.367 180.664 423.934 182.258 421.59 185.445C419.27 188.609 418.098 193.203 418.074 199.227V203.41C418.074 209.152 419.387 213.723 422.012 217.121C424.637 220.496 428.188 222.184 432.664 222.184C435.195 222.184 437.41 221.902 439.309 221.34C441.207 220.777 442.777 219.828 444.02 218.492V206.996H432.172V201.512H450.734V220.285ZM498.055 175.812V210.617C498.031 215.445 496.508 219.395 493.484 222.465C490.484 225.535 486.406 227.258 481.25 227.633L479.457 227.703C473.855 227.703 469.391 226.191 466.062 223.168C462.734 220.145 461.047 215.984 461 210.688V175.812H467.68V210.477C467.68 214.18 468.699 217.062 470.738 219.125C472.777 221.164 475.684 222.184 479.457 222.184C483.277 222.184 486.195 221.164 488.211 219.125C490.25 217.086 491.27 214.215 491.27 210.512V175.812H498.055ZM527.48 206.293H515.457V227H508.672V175.812H525.617C531.383 175.812 535.812 177.125 538.906 179.75C542.023 182.375 543.582 186.195 543.582 191.211C543.582 194.398 542.715 197.176 540.98 199.543C539.27 201.91 536.879 203.68 533.809 204.852L545.832 226.578V227H538.59L527.48 206.293ZM515.457 200.773H525.828C529.18 200.773 531.84 199.906 533.809 198.172C535.801 196.438 536.797 194.117 536.797 191.211C536.797 188.047 535.848 185.621 533.949 183.934C532.074 182.246 529.355 181.391 525.793 181.367H515.457V200.773ZM589.109 175.812V210.617C589.086 215.445 587.562 219.395 584.539 222.465C581.539 225.535 577.461 227.258 572.305 227.633L570.512 227.703C564.91 227.703 560.445 226.191 557.117 223.168C553.789 220.145 552.102 215.984 552.055 210.688V175.812H558.734V210.477C558.734 214.18 559.754 217.062 561.793 219.125C563.832 221.164 566.738 222.184 570.512 222.184C574.332 222.184 577.25 221.164 579.266 219.125C581.305 217.086 582.324 214.215 582.324 210.512V175.812H589.109Z" fill="black"/>
<path d="M586.829 144.79L585.378 151.177C585.106 152.376 584.511 153.435 583.686 154.189C582.861 154.944 581.851 155.353 580.812 155.353H490.881C489.842 155.353 488.833 154.944 488.007 154.189C487.182 153.435 486.587 152.376 486.315 151.177L484.864 144.79C483.601 139.224 486.906 133.541 491.723 133.283C491.841 133.283 491.959 133.272 492.08 133.272H579.622C579.742 133.272 579.859 133.272 579.979 133.283C584.791 133.541 588.096 139.224 586.829 144.79Z" fill="black"/>
<path opacity="0.1" d="M578.118 136.179C578.118 143.078 558.54 148.672 534.391 148.672C510.241 148.672 490.664 143.078 490.664 136.179C490.664 135.176 491.076 134.203 491.854 133.272H576.928C577.704 134.203 578.118 135.176 578.118 136.179Z" fill="black"/>
<path d="M590.021 107.738C590.021 102.642 586.105 98.5105 581.278 98.5105C576.451 98.5105 572.535 102.642 572.535 107.738C567.706 107.738 563.791 111.872 563.791 116.968C563.791 122.064 567.708 126.198 572.535 126.198C574.054 126.204 575.552 125.78 576.908 124.96C578.265 125.774 579.762 126.197 581.28 126.197C582.797 126.197 584.294 125.774 585.651 124.96C587.007 125.78 588.506 126.204 590.025 126.198C594.855 126.198 598.768 122.064 598.768 116.968C598.768 111.872 594.859 107.738 590.021 107.738Z" fill="black"/>
<path opacity="0.1" d="M590.021 107.738C590.021 102.642 586.105 98.5105 581.278 98.5105C576.451 98.5105 572.535 102.642 572.535 107.738C567.706 107.738 563.791 111.872 563.791 116.968C563.791 122.064 567.708 126.198 572.535 126.198C574.054 126.204 575.552 125.78 576.908 124.96C578.265 125.774 579.762 126.197 581.28 126.197C582.797 126.197 584.294 125.774 585.651 124.96C587.007 125.78 588.506 126.204 590.025 126.198C594.855 126.198 598.768 122.064 598.768 116.968C598.768 111.872 594.859 107.738 590.021 107.738Z" fill="black"/>
<path d="M569.355 61.0299C569.356 59.7497 569.16 58.4802 568.777 57.2847C570.725 56.4592 572.366 54.8369 573.411 52.7043C574.455 50.5717 574.836 48.0664 574.486 45.6305C574.136 43.1945 573.078 40.9851 571.497 39.3922C569.917 37.7994 567.917 36.9257 565.85 36.9257C565.85 34.3593 565.062 31.8823 563.636 29.9644C562.209 28.0465 560.245 26.8211 558.114 26.5206C555.982 26.2202 553.833 26.8655 552.073 28.3342C550.313 29.8028 549.065 31.9926 548.566 34.4886C548.485 34.4886 548.405 34.4886 548.325 34.4886C548.327 31.8776 547.513 29.3598 546.044 27.4283C544.575 25.4969 542.556 24.291 540.383 24.0468C538.209 23.8029 536.037 24.5381 534.293 26.1088C532.549 27.6794 531.359 29.9723 530.954 32.5381C529.661 31.3231 528.109 30.5677 526.475 30.3579C524.84 30.1483 523.189 30.493 521.711 31.3524C520.232 32.2118 518.985 33.5515 518.113 35.2182C517.241 36.8849 516.779 38.8116 516.779 40.7777C514.894 40.7809 513.061 41.5107 511.551 42.8592C510.04 44.2078 508.934 46.1026 508.396 48.2629C507.857 50.4232 507.916 52.7333 508.562 54.8508C509.209 56.968 510.409 58.7796 511.985 60.0163C511.872 60.6945 511.815 61.3842 511.815 62.0756C510.471 62.0748 509.144 62.4442 507.938 63.1548C506.732 63.8655 505.679 64.8986 504.86 66.1739C504.042 67.4494 503.479 68.933 503.217 70.5101C502.954 72.0869 502.999 73.7152 503.347 75.2684C503.695 76.8216 504.337 78.258 505.223 79.467C506.11 80.6757 507.217 81.6245 508.459 82.2395C509.701 82.8546 511.045 83.1194 512.387 83.0138C513.729 82.9081 515.032 82.4346 516.196 81.63C517.528 82.5498 519.039 83.0343 520.577 83.0343C522.115 83.0343 523.626 82.5498 524.959 81.63C526.582 82.7515 528.464 83.2204 530.327 82.9675C532.19 82.7148 533.936 81.7538 535.308 80.2258C535.46 80.2258 535.611 80.2408 535.765 80.2408C537.304 80.2423 538.816 79.7572 540.147 78.8344C542.104 80.1913 544.425 80.5854 546.621 79.9335C547.993 81.1454 549.632 81.8516 551.336 81.9653C553.04 82.0791 554.734 81.5955 556.211 80.5737C557.544 81.4935 559.055 81.9777 560.593 81.9777C562.131 81.9777 563.642 81.4935 564.974 80.5737C566.138 81.3782 567.442 81.8518 568.783 81.9574C570.125 82.0631 571.469 81.7982 572.711 81.1832C573.953 80.5681 575.06 79.6193 575.947 78.4106C576.833 77.2017 577.475 75.7652 577.823 74.212C578.171 72.6589 578.216 71.0306 577.953 69.4537C577.691 67.8767 577.129 66.3931 576.31 65.1175C575.491 63.8422 574.438 62.8091 573.232 62.0985C572.026 61.3878 570.699 61.0184 569.355 61.0193V61.0299ZM529.339 62.0778C529.339 61.6266 529.314 61.1761 529.264 60.729C529.489 60.6031 529.71 60.4708 529.924 60.3214C530.274 60.5664 530.639 60.7803 531.015 60.9616C530.583 61.2969 530.176 61.6759 529.798 62.0948C529.646 62.082 529.493 62.0778 529.339 62.0778Z" fill="black"/>
<path d="M565.363 89.9081C565.332 87.4285 564.487 85.0629 563.009 83.3226C561.532 81.5822 559.542 80.6068 557.469 80.6068C555.395 80.6068 553.405 81.5822 551.928 83.3226C550.45 85.0629 549.605 87.4285 549.574 89.9081C548.362 89.9072 547.167 90.2399 546.08 90.8801C544.993 91.5204 544.044 92.4512 543.307 93.6004C542.569 94.7496 542.062 96.0866 541.825 97.5075C541.589 98.9285 541.629 100.396 541.942 101.795C542.256 103.195 542.835 104.489 543.633 105.578C544.432 106.668 545.43 107.522 546.549 108.077C547.669 108.631 548.88 108.869 550.089 108.774C551.298 108.679 552.472 108.252 553.521 107.527C554.721 108.357 556.082 108.794 557.469 108.794C558.855 108.794 560.216 108.357 561.416 107.527C562.465 108.251 563.639 108.676 564.847 108.77C566.055 108.865 567.265 108.625 568.383 108.071C569.502 107.517 570.499 106.662 571.297 105.573C572.095 104.485 572.673 103.191 572.986 101.792C573.299 100.394 573.34 98.9279 573.104 97.5079C572.867 96.0877 572.361 94.7515 571.624 93.6028C570.888 92.454 569.94 91.5231 568.854 90.8825C567.768 90.2418 566.574 89.9085 565.363 89.9081Z" fill="black"/>
<path opacity="0.1" d="M565.363 89.9081C565.332 87.4285 564.487 85.0629 563.009 83.3226C561.532 81.5822 559.542 80.6068 557.469 80.6068C555.395 80.6068 553.405 81.5822 551.928 83.3226C550.45 85.0629 549.605 87.4285 549.574 89.9081C548.362 89.9072 547.167 90.2399 546.08 90.8801C544.993 91.5204 544.044 92.4512 543.307 93.6004C542.569 94.7496 542.062 96.0866 541.825 97.5075C541.589 98.9285 541.629 100.396 541.942 101.795C542.256 103.195 542.835 104.489 543.633 105.578C544.432 106.668 545.43 107.522 546.549 108.077C547.669 108.631 548.88 108.869 550.089 108.774C551.298 108.679 552.472 108.252 553.521 107.527C554.721 108.357 556.082 108.794 557.469 108.794C558.855 108.794 560.216 108.357 561.416 107.527C562.465 108.251 563.639 108.676 564.847 108.77C566.055 108.865 567.265 108.625 568.383 108.071C569.502 107.517 570.499 106.662 571.297 105.573C572.095 104.485 572.673 103.191 572.986 101.792C573.299 100.394 573.34 98.9279 573.104 97.5079C572.867 96.0877 572.361 94.7515 571.624 93.6028C570.888 92.454 569.94 91.5231 568.854 90.8825C567.768 90.2418 566.574 89.9085 565.363 89.9081Z" fill="black"/>
<path opacity="0.1" d="M569.361 62.8512C569.362 61.5707 569.166 60.3012 568.783 59.1059C570.731 58.2804 572.372 56.6581 573.417 54.5255C574.461 52.393 574.842 49.8876 574.492 47.4515C574.142 45.0157 573.083 42.8061 571.503 41.2135C569.923 39.6206 567.923 38.7469 565.856 38.7469C565.856 36.1803 565.068 33.7033 563.642 31.7856C562.215 29.8677 560.251 28.6423 558.119 28.3419C555.988 28.0414 553.839 28.6867 552.079 30.1552C550.319 31.6238 549.071 33.8138 548.571 36.3098C548.491 36.3098 548.411 36.3098 548.33 36.3098C548.332 33.6988 547.519 31.1808 546.05 29.2495C544.581 27.3179 542.562 26.1122 540.388 25.868C538.215 25.6239 536.043 26.3593 534.299 27.93C532.555 29.5007 531.364 31.7933 530.96 34.3593C529.667 33.1444 528.115 32.3887 526.481 32.1791C524.846 31.9693 523.195 32.314 521.716 33.1736C520.238 34.033 518.991 35.3725 518.119 37.0394C517.247 38.7061 516.785 40.6326 516.785 42.5989C514.9 42.6019 513.067 43.3319 511.556 44.6805C510.046 46.0288 508.94 47.9238 508.401 50.0841C507.863 52.2442 507.921 54.5546 508.568 56.6718C509.215 58.7892 510.415 60.6006 511.991 61.8375C511.878 62.5155 511.821 63.2054 511.821 63.8968C510.477 63.896 509.15 64.2652 507.944 64.9758C506.738 65.6865 505.685 66.7196 504.866 67.9951C504.047 69.2704 503.485 70.754 503.223 72.3311C502.96 73.9082 503.005 75.5362 503.353 77.0894C503.701 78.6426 504.343 80.0792 505.229 81.288C506.116 82.4969 507.223 83.4455 508.465 84.0605C509.707 84.6756 511.051 84.9406 512.393 84.8348C513.734 84.7291 515.038 84.2558 516.202 83.4513C517.534 84.3711 519.045 84.8553 520.583 84.8553C522.121 84.8553 523.633 84.3711 524.965 83.4513C526.588 84.5727 528.47 85.0414 530.333 84.7887C532.196 84.5358 533.942 83.5748 535.314 82.0471C535.465 82.0471 535.617 82.062 535.771 82.062C537.31 82.0635 538.821 81.5782 540.153 80.6556C542.11 82.0125 544.431 82.4066 546.626 81.7547C547.999 82.9666 549.638 83.6728 551.342 83.7865C553.046 83.9003 554.74 83.4165 556.217 82.3949C557.549 83.3147 559.061 83.7989 560.599 83.7989C562.137 83.7989 563.648 83.3147 564.98 82.3949C566.144 83.1994 567.448 83.6728 568.789 83.7784C570.131 83.8843 571.474 83.6192 572.717 83.0042C573.959 82.3891 575.066 81.4406 575.953 80.2316C576.839 79.0229 577.481 77.5862 577.829 76.033C578.177 74.4799 578.222 72.8518 577.959 71.2747C577.697 69.6979 577.134 68.2141 576.316 66.9387C575.497 65.6632 574.444 64.6303 573.238 63.9195C572.032 63.2088 570.705 62.8396 569.361 62.8405V62.8512ZM529.345 63.899C529.345 63.4478 529.32 62.9973 529.27 62.5503C529.495 62.4243 529.716 62.292 529.93 62.1426C530.28 62.3874 530.645 62.6015 531.021 62.7829C530.589 63.1181 530.181 63.4971 529.804 63.9161C529.652 63.9032 529.499 63.899 529.345 63.899Z" fill="black"/>
<path d="M562.703 112.557C562.021 112.233 561.331 111.904 560.603 111.793C560.53 111.793 560.456 111.776 560.381 111.769C560.381 111.68 560.381 111.592 560.39 111.505C560.43 110.438 560.706 109.337 561.331 108.566C561.955 107.796 562.824 107.416 563.231 106.507C561.744 105.986 560.204 105.709 558.654 105.685C558.26 105.685 557.841 105.685 557.51 105.954C557.105 106.268 556.931 106.861 556.797 107.42C556.386 109.273 556.11 111.087 555.64 112.894L555.517 112.928C553.858 113.355 551.77 113.024 551.008 111.238C551.198 110.337 551.437 109.452 551.722 108.588C552.614 105.931 553.981 103.543 555.332 101.176C556.206 99.6409 557.082 98.1071 557.958 96.5749C556.646 96.1015 555.313 95.7148 553.965 95.4161C553.679 95.3521 553.356 95.3008 553.119 95.5014C552.958 95.6658 552.84 95.8822 552.778 96.1246C551.49 99.9062 549.911 104.044 549.463 108.201C549.212 108.038 548.954 107.892 548.69 107.762L544.54 105.645C544.32 105.557 544.122 105.405 543.962 105.205C543.584 104.644 543.962 103.752 544.515 103.453C545.068 103.154 545.695 103.24 546.299 103.176C546.904 103.112 547.572 102.849 547.796 102.179C548.057 101.409 547.559 100.538 546.951 100.134C546.342 99.7312 545.627 99.6181 544.988 99.2809C544.497 99.0062 544.066 98.5984 543.729 98.0896C543.393 97.5811 543.161 96.9857 543.05 96.3508L542.06 96.2953C543.366 94.8015 544.72 93.3695 546.276 92.2705C547.027 91.7391 547.823 91.2888 548.523 90.6635C549.444 89.8189 550.165 88.7019 550.616 87.4225C551.066 86.1432 551.23 84.7456 551.092 83.3672C551.003 82.5648 550.812 81.7346 551.024 80.9663C551.203 80.3411 551.606 79.8609 552.004 79.4063L555.589 75.3047C553.307 74.6832 550.969 74.4079 548.63 74.4852C548.037 74.5065 547.425 74.5535 546.895 74.8736C545.928 75.4583 545.468 76.7814 545.09 77.9957C544.801 78.8511 544.568 79.7314 544.392 80.6292C544.128 82.1443 544.167 83.8046 543.452 85.0915C542.884 86.1116 541.94 86.7134 541.093 87.4005C538.677 89.3681 536.875 92.237 535.966 95.5591C535.909 95.7725 535.813 96.0456 535.702 96.3508C533.602 96.5642 531.545 97.0422 529.602 98.0196C527.159 99.2489 525.026 101.202 522.933 103.141C520.628 105.275 518.203 107.663 517.393 111.018C516.492 114.742 517.882 118.827 520.107 121.646C521.927 123.949 524.236 125.57 526.565 127.028C528.087 127.98 528.34 127.786 529.676 126.505L533.27 123.061C534.296 122.079 535.34 121.072 536.038 119.74C536.999 117.907 537.237 115.579 538.402 113.921C539.997 111.648 543.25 111.458 545.025 113.53C545.536 114.128 545.98 114.909 546.676 115.107C547.015 115.205 547.39 115.15 547.7 115.32C548.293 115.658 548.382 116.601 548.592 117.335C549.172 119.313 551.142 120.348 552.875 120.052C554.607 119.755 556.101 118.408 557.273 116.851C557.593 116.424 557.908 115.971 558.344 115.717C558.692 115.532 559.069 115.436 559.45 115.436C560.715 115.374 561.972 115.707 563.097 116.402C564.145 117.043 565.06 117.992 566.161 118.492C568.34 119.478 570.775 118.541 572.909 117.425L562.703 112.557Z" fill="black"/>
<path opacity="0.1" d="M562.703 112.557C562.021 112.233 561.331 111.904 560.603 111.793C560.53 111.793 560.456 111.776 560.381 111.769C560.381 111.68 560.381 111.592 560.39 111.505C560.43 110.438 560.706 109.337 561.331 108.566C561.955 107.796 562.824 107.416 563.231 106.507C561.744 105.986 560.204 105.709 558.654 105.685C558.26 105.685 557.841 105.685 557.51 105.954C557.105 106.268 556.931 106.861 556.797 107.42C556.386 109.273 556.11 111.087 555.64 112.894L555.517 112.928C553.858 113.355 551.77 113.024 551.008 111.238C551.198 110.337 551.437 109.452 551.722 108.588C552.614 105.931 553.981 103.543 555.332 101.176C556.206 99.6409 557.082 98.1071 557.958 96.5749C556.646 96.1015 555.313 95.7148 553.965 95.4161C553.679 95.3521 553.356 95.3008 553.119 95.5014C552.958 95.6658 552.84 95.8822 552.778 96.1246C551.49 99.9062 549.911 104.044 549.463 108.201C549.212 108.038 548.954 107.892 548.69 107.762L544.54 105.645C544.32 105.557 544.122 105.405 543.962 105.205C543.584 104.644 543.962 103.752 544.515 103.453C545.068 103.154 545.695 103.24 546.299 103.176C546.904 103.112 547.572 102.849 547.796 102.179C548.057 101.409 547.559 100.538 546.951 100.134C546.342 99.7312 545.627 99.6181 544.988 99.2809C544.497 99.0062 544.066 98.5984 543.729 98.0896C543.393 97.5811 543.161 96.9857 543.05 96.3508L542.06 96.2953C543.366 94.8015 544.72 93.3695 546.276 92.2705C547.027 91.7391 547.823 91.2888 548.523 90.6635C549.444 89.8189 550.165 88.7019 550.616 87.4225C551.066 86.1432 551.23 84.7456 551.092 83.3672C551.003 82.5648 550.812 81.7346 551.024 80.9663C551.203 80.3411 551.606 79.8609 552.004 79.4063L555.589 75.3047C553.307 74.6832 550.969 74.4079 548.63 74.4852C548.037 74.5065 547.425 74.5535 546.895 74.8736C545.928 75.4583 545.468 76.7814 545.09 77.9957C544.801 78.8511 544.568 79.7314 544.392 80.6292C544.128 82.1443 544.167 83.8046 543.452 85.0915C542.884 86.1116 541.94 86.7134 541.093 87.4005C538.677 89.3681 536.875 92.237 535.966 95.5591C535.909 95.7725 535.813 96.0456 535.702 96.3508C533.602 96.5642 531.545 97.0422 529.602 98.0196C527.159 99.2489 525.026 101.202 522.933 103.141C520.628 105.275 518.203 107.663 517.393 111.018C516.492 114.742 517.882 118.827 520.107 121.646C521.927 123.949 524.236 125.57 526.565 127.028C528.087 127.98 528.34 127.786 529.676 126.505L533.27 123.061C534.296 122.079 535.34 121.072 536.038 119.74C536.999 117.907 537.237 115.579 538.402 113.921C539.997 111.648 543.25 111.458 545.025 113.53C545.536 114.128 545.98 114.909 546.676 115.107C547.015 115.205 547.39 115.15 547.7 115.32C548.293 115.658 548.382 116.601 548.592 117.335C549.172 119.313 551.142 120.348 552.875 120.052C554.607 119.755 556.101 118.408 557.273 116.851C557.593 116.424 557.908 115.971 558.344 115.717C558.692 115.532 559.069 115.436 559.45 115.436C560.715 115.374 561.972 115.707 563.097 116.402C564.145 117.043 565.06 117.992 566.161 118.492C568.34 119.478 570.775 118.541 572.909 117.425L562.703 112.557Z" fill="black"/>
<path d="M533.54 86.3954C533.54 81.1477 528.918 76.8967 523.215 76.8967C517.513 76.8967 512.891 81.1435 512.891 86.3954C507.181 86.3954 502.567 90.6465 502.567 95.8941C502.567 101.142 507.188 105.391 512.891 105.391C514.668 105.4 516.426 104.964 518.053 104.11C519.683 104.951 521.44 105.384 523.215 105.384C524.991 105.384 526.747 104.951 528.377 104.11C530.004 104.964 531.763 105.4 533.54 105.391C539.249 105.391 543.864 101.14 543.864 95.8941C543.864 90.6486 539.242 86.3954 533.54 86.3954Z" fill="black"/>
<path opacity="0.1" d="M533.54 86.3954C533.54 81.1477 528.918 76.8967 523.215 76.8967C517.513 76.8967 512.891 81.1435 512.891 86.3954C507.181 86.3954 502.567 90.6465 502.567 95.8941C502.567 101.142 507.188 105.391 512.891 105.391C514.668 105.4 516.426 104.964 518.053 104.11C519.683 104.951 521.44 105.384 523.215 105.384C524.991 105.384 526.747 104.951 528.377 104.11C530.004 104.964 531.763 105.4 533.54 105.391C539.249 105.391 543.864 101.14 543.864 95.8941C543.864 90.6486 539.242 86.3954 533.54 86.3954Z" fill="black"/>
<path d="M555.681 140.044L549.763 136.785C549.288 136.522 548.762 136.196 548.614 135.594C548.561 135.268 548.561 134.934 548.614 134.608C548.756 132.915 548.448 131.211 547.734 129.738C547.29 128.827 546.688 128.007 546.423 127C545.855 124.866 546.958 122.606 547.011 120.357C547.07 118.167 546.119 116.061 544.765 114.578C544.363 114.136 543.923 113.724 543.607 113.201C542.69 111.661 543.072 109.573 543.507 107.732L543.619 107.608C543.703 107.51 543.641 107.089 543.487 106.466C545.198 105.921 546.811 105.005 548.246 103.765C548.701 103.37 549.138 102.937 549.674 102.685C550.409 102.333 551.242 102.373 551.984 102.044C553.369 101.428 554.138 99.697 554.782 98.1093C556.308 94.3555 557.86 90.4757 558.053 86.3079C556.8 85.1489 555.278 84.4839 553.695 84.4043C553.431 84.3915 553.132 84.4043 552.959 84.6519C552.861 84.8089 552.8 84.9935 552.78 85.1875C552.24 88.162 551.307 91.0148 550.016 93.6384C549.5 94.7406 548.868 95.7584 548.134 96.6666C547.242 97.7337 546.146 98.5297 545.068 99.3214C544.162 99.9851 542.948 100.632 541.919 101.394C541.205 99.1998 540.554 97.198 540.638 96.8907C541.534 93.5437 541.569 89.952 540.738 86.5811C540.531 85.7445 540.267 84.9186 540.202 84.0479C540.138 83.1772 540.283 82.3193 540.34 81.4529C540.452 79.735 540.233 78.0128 540.242 76.2885C540.252 73.9538 540.68 71.6533 541.107 69.3741C539.921 69.1206 538.713 69.0431 537.512 69.1436C537.275 69.1447 537.042 69.2181 536.835 69.357C536.535 69.5897 536.423 70.0378 536.321 70.4475C535.527 73.6294 534.087 76.5339 533.233 79.6944C532.378 82.855 532.194 86.5576 533.784 89.2806C534.35 90.2474 535.14 91.1223 535.265 92.2918C535.331 92.9107 535.195 93.5317 535.06 94.1356C534.819 95.2176 538.695 106.844 538.91 107.917C538.91 107.947 538.925 107.973 538.93 108.001C538.809 108.033 538.686 108.06 538.562 108.095C538.399 111.118 537.421 113.997 535.775 116.3C535.557 115.557 535.402 114.789 535.313 114.008C535.179 112.834 535.192 111.624 534.887 110.498C534.43 108.816 533.327 107.527 532.364 106.189C530.629 103.774 529.259 101.016 528.315 98.0388C527.588 98.3617 526.842 98.6236 526.085 98.822C525.683 98.9288 524.3 98.9309 524.083 99.3598C523.747 100 525.246 102.977 525.542 103.662C526.586 106.071 528.345 107.954 529.378 110.369C529.809 111.442 530.166 112.554 530.444 113.696C531.008 115.831 531.571 117.965 532.003 120.133C531.486 120.773 531.077 121.554 530.633 122.282C529.057 124.846 526.972 126.899 524.566 128.257C524.279 128.419 523.961 128.601 523.838 128.951C523.817 129.011 523.802 129.073 523.792 129.136C522.81 128.308 521.893 127.384 521.254 126.181C520.972 125.647 520.749 125.069 520.442 124.557C519.409 122.835 517.602 122.107 516.123 120.929C515.498 120.434 514.916 119.847 514.226 119.499C513.467 119.115 512.629 119.042 511.808 118.976C511.135 118.921 508.555 118.278 508.223 118.997C507.752 120.015 509.246 121.503 509.843 121.861C510.837 122.457 511.974 122.608 513.012 123.08C513.951 123.541 514.823 124.178 515.594 124.966C515.932 125.264 516.227 125.624 516.469 126.033C516.726 126.514 516.845 127.079 517.061 127.587C517.753 129.215 519.251 129.96 520.591 130.918C520.235 130.937 519.885 131.031 519.557 131.198C518.56 131.74 518.096 133.082 517.447 134.139C516.867 135.076 516.103 135.825 515.464 136.7C514.825 137.574 514.294 138.669 514.342 139.832C514.372 140.569 514.62 141.373 514.294 141.998C515.045 142.387 515.969 142.852 516.783 142.969C517.596 143.087 518.478 142.901 519.086 142.246C519.275 142.005 519.477 141.781 519.691 141.574C520.207 141.162 520.914 141.277 521.465 141.614C522.016 141.951 522.471 142.479 522.976 142.912C523.697 143.522 524.519 143.942 525.386 144.143C526.254 144.343 527.147 144.32 528.006 144.075C528.363 143.972 528.875 143.885 528.765 143.475C528.01 143.053 527.366 142.39 526.907 141.559C526.448 140.727 526.189 139.759 526.161 138.763C526.723 138.635 527.304 138.692 527.841 138.928C528.377 139.164 528.85 139.57 529.209 140.103C528.713 140.129 528.385 140.927 528.674 141.414C529.619 141.391 530.545 141.098 531.376 140.559C532.207 140.02 532.918 139.25 533.449 138.315C533.838 138.124 534.262 138.054 534.68 138.111C535.098 138.168 535.498 138.351 535.841 138.643C536.184 138.934 536.461 139.324 536.644 139.777C536.828 140.23 536.912 140.732 536.891 141.234L539.471 142.758C539.876 142.997 540.306 143.243 540.757 143.206C541.209 143.17 541.669 142.735 541.635 142.197C541.596 141.58 540.977 140.951 541.316 140.49C541.922 140.814 542.386 141.454 543.009 141.734C543.632 142.013 544.549 141.64 544.515 140.846C544.488 140.582 544.402 140.33 544.267 140.118C543.569 138.847 542.642 137.779 541.553 136.994C541.473 136.296 542.802 135.53 543.205 136.051L546.474 140.359C546.729 140.73 547.03 141.051 547.366 141.311C548.535 142.12 549.995 141.311 551.344 141.311C552.803 141.311 554.297 142.306 555.655 141.672C556.012 141.508 556.368 141.104 556.267 140.665C556.186 140.349 555.921 140.184 555.681 140.044Z" fill="black"/>
<path d="M564.514 59.7644C564.515 58.7 564.351 57.6444 564.032 56.6508C565.652 55.9637 567.017 54.6143 567.885 52.8407C568.754 51.0671 569.07 48.9836 568.779 46.9579C568.488 44.9321 567.608 43.0946 566.294 41.7698C564.98 40.4448 563.317 39.7179 561.598 39.717C561.597 37.5832 560.94 35.5245 559.754 33.9305C558.568 32.3364 556.935 31.318 555.163 31.0683C553.391 30.8184 551.604 31.3543 550.141 32.5748C548.677 33.795 547.639 35.6149 547.222 37.6897C547.156 37.6897 547.09 37.6897 547.022 37.6897C547.03 35.5125 546.357 33.4107 545.134 31.7975C543.911 30.1844 542.228 29.1771 540.416 28.9737C538.603 28.7704 536.793 29.3856 535.341 30.6985C533.888 32.0114 532.9 33.9269 532.569 36.0678C531.494 35.0575 530.203 34.4293 528.844 34.2549C527.485 34.0806 526.112 34.3672 524.882 35.0819C523.653 35.7968 522.616 36.9107 521.891 38.297C521.166 39.6831 520.781 41.2852 520.782 42.9203C519.213 42.9213 517.686 43.5276 516.429 44.6493C515.172 45.771 514.25 47.3478 513.802 49.1458C513.354 50.9435 513.403 52.8665 513.941 54.6284C514.48 56.3905 515.48 57.8976 516.792 58.9257C516.699 59.4881 516.652 60.0598 516.651 60.633C515.532 60.6319 514.428 60.9386 513.425 61.5295C512.421 62.1204 511.545 62.9798 510.864 64.0407C510.182 65.1017 509.714 66.3361 509.496 67.6481C509.278 68.9601 509.314 70.3146 509.604 71.607C509.893 72.8992 510.428 74.0942 511.165 75.1C511.903 76.1056 512.824 76.8946 513.858 77.4061C514.892 77.9176 516.01 78.1376 517.126 78.0493C518.242 77.9609 519.326 77.5666 520.294 76.8967C521.402 77.6628 522.659 78.0664 523.939 78.0664C525.219 78.0664 526.476 77.6628 527.583 76.8967C528.933 77.8303 530.498 78.2207 532.047 78.0107C533.597 77.8005 535.049 77.0008 536.189 75.7294C536.316 75.7294 536.443 75.74 536.571 75.74C537.851 75.7415 539.107 75.3388 540.215 74.5727C541.846 75.7031 543.781 76.032 545.611 75.4903C546.752 76.4995 548.114 77.0881 549.532 77.1837C550.949 77.2793 552.358 76.8777 553.587 76.0281C554.694 76.794 555.951 77.1974 557.23 77.1974C558.51 77.1974 559.766 76.794 560.874 76.0281C561.842 76.6963 562.925 77.0894 564.041 77.1769C565.156 77.2642 566.273 77.0435 567.306 76.5322C568.338 76.0207 569.259 75.2319 569.996 74.227C570.733 73.222 571.266 72.0278 571.556 70.7367C571.845 69.4456 571.882 68.0922 571.665 66.781C571.447 65.4701 570.98 64.2364 570.299 63.1757C569.619 62.1151 568.744 61.2557 567.742 60.6641C566.74 60.0728 565.637 59.7649 564.519 59.7644H564.514ZM531.232 60.6373C531.232 60.2625 531.211 59.8884 531.17 59.5169C531.348 59.4102 531.541 59.3035 531.718 59.1776C532.01 59.3782 532.314 59.5551 532.626 59.7068C532.266 59.9845 531.927 60.2994 531.612 60.6479C531.488 60.6415 531.359 60.6373 531.232 60.6373Z" fill="black"/>
<path d="M589.291 107.994C589.291 103.182 585.594 99.2787 581.032 99.2787C576.469 99.2787 572.774 103.182 572.774 107.994C568.211 107.994 564.514 111.897 564.514 116.712C564.514 121.526 568.211 125.427 572.774 125.427C574.208 125.432 575.623 125.029 576.903 124.252C578.184 125.02 579.599 125.421 581.033 125.421C582.466 125.421 583.881 125.02 585.162 124.252C586.442 125.026 587.857 125.427 589.291 125.421C593.854 125.421 597.551 121.52 597.551 116.706C597.551 111.891 593.854 107.994 589.291 107.994Z" fill="black"/>
<path d="M562.385 86.7473C562.4 85.5911 562.223 84.443 561.864 83.3695C561.504 82.2961 560.97 81.3191 560.291 80.4951C559.613 79.671 558.805 79.0167 557.913 78.57C557.021 78.1233 556.064 77.8933 555.097 77.8933C554.13 77.8933 553.173 78.1233 552.281 78.57C551.39 79.0167 550.581 79.671 549.903 80.4951C549.224 81.3191 548.69 82.2961 548.331 83.3695C547.971 84.443 547.794 85.5911 547.809 86.7473C546.691 86.748 545.589 87.0559 544.587 87.6475C543.585 88.239 542.71 89.0982 542.03 90.1588C541.35 91.2192 540.883 92.4525 540.665 93.7633C540.447 95.0742 540.484 96.4274 540.773 97.7183C541.063 99.0092 541.596 100.203 542.333 101.208C543.07 102.213 543.99 103.002 545.022 103.514C546.054 104.026 547.171 104.247 548.286 104.16C549.401 104.073 550.485 103.681 551.453 103.013C552.56 103.778 553.817 104.18 555.096 104.18C556.375 104.18 557.632 103.778 558.74 103.013C559.708 103.682 560.791 104.074 561.907 104.162C563.022 104.249 564.139 104.029 565.171 103.517C566.204 103.006 567.124 102.217 567.862 101.212C568.599 100.207 569.132 99.0128 569.422 97.7217C569.711 96.4306 569.748 95.0772 569.53 93.766C569.313 92.4551 568.845 91.2214 568.165 90.1607C567.485 89.1001 566.61 88.2407 565.608 87.6494C564.606 87.0578 563.503 86.7499 562.385 86.7494V86.7473Z" fill="black"/>
<path d="M534.51 86.182C534.51 81.3676 530.267 77.4665 525.035 77.4665C519.804 77.4665 515.561 81.3676 515.561 86.182C510.329 86.182 506.087 90.0852 506.087 94.8975C506.087 99.7098 510.329 103.615 515.561 103.615C517.191 103.626 518.804 103.227 520.298 102.446C521.794 103.217 523.406 103.615 525.035 103.615C526.665 103.615 528.277 103.217 529.773 102.446C531.266 103.227 532.88 103.626 534.51 103.615C539.742 103.615 543.983 99.712 543.983 94.8975C543.983 90.0831 539.742 86.182 534.51 86.182Z" fill="black"/>
<path d="M514.956 112.354C514.971 111.121 514.782 109.897 514.398 108.753C514.014 107.609 513.444 106.567 512.721 105.689C511.998 104.81 511.135 104.113 510.184 103.636C509.234 103.16 508.213 102.915 507.182 102.915C506.151 102.915 505.131 103.16 504.18 103.636C503.229 104.113 502.367 104.81 501.643 105.689C500.92 106.567 500.35 107.609 499.966 108.753C499.583 109.897 499.393 111.121 499.409 112.354C498.216 112.353 497.039 112.681 495.969 113.311C494.899 113.941 493.964 114.858 493.237 115.99C492.511 117.121 492.012 118.438 491.779 119.837C491.546 121.236 491.586 122.68 491.894 124.059C492.203 125.437 492.773 126.711 493.559 127.784C494.346 128.856 495.329 129.698 496.431 130.244C497.533 130.789 498.725 131.024 499.916 130.93C501.106 130.836 502.262 130.416 503.295 129.702C504.477 130.518 505.817 130.948 507.182 130.948C508.547 130.948 509.888 130.518 511.069 129.702C512.102 130.415 513.257 130.833 514.447 130.926C515.637 131.019 516.828 130.784 517.929 130.238C519.031 129.692 520.012 128.851 520.798 127.779C521.584 126.707 522.153 125.433 522.462 124.056C522.77 122.679 522.81 121.235 522.577 119.837C522.345 118.439 521.846 117.123 521.121 115.992C520.395 114.861 519.462 113.944 518.393 113.314C517.324 112.683 516.148 112.355 514.956 112.354Z" fill="black"/>
<path opacity="0.1" d="M514.956 112.354C514.971 111.121 514.782 109.897 514.398 108.753C514.014 107.609 513.444 106.567 512.721 105.689C511.998 104.81 511.135 104.113 510.184 103.636C509.234 103.16 508.213 102.915 507.182 102.915C506.151 102.915 505.131 103.16 504.18 103.636C503.229 104.113 502.367 104.81 501.643 105.689C500.92 106.567 500.35 107.609 499.966 108.753C499.583 109.897 499.393 111.121 499.409 112.354C498.216 112.353 497.039 112.681 495.969 113.311C494.899 113.941 493.964 114.858 493.237 115.99C492.511 117.121 492.012 118.438 491.779 119.837C491.546 121.236 491.586 122.68 491.894 124.059C492.203 125.437 492.773 126.711 493.559 127.784C494.346 128.856 495.329 129.698 496.431 130.244C497.533 130.789 498.725 131.024 499.916 130.93C501.106 130.836 502.262 130.416 503.295 129.702C504.477 130.518 505.817 130.948 507.182 130.948C508.547 130.948 509.888 130.518 511.069 129.702C512.102 130.415 513.257 130.833 514.447 130.926C515.637 131.019 516.828 130.784 517.929 130.238C519.031 129.692 520.012 128.851 520.798 127.779C521.584 126.707 522.153 125.433 522.462 124.056C522.77 122.679 522.81 121.235 522.577 119.837C522.345 118.439 521.846 117.123 521.121 115.992C520.395 114.861 519.462 113.944 518.393 113.314C517.324 112.683 516.148 112.355 514.956 112.354Z" fill="black"/>
<path d="M514.47 112.644C514.485 111.488 514.308 110.34 513.949 109.267C513.589 108.193 513.055 107.216 512.376 106.392C511.698 105.568 510.89 104.914 509.998 104.467C509.106 104.02 508.149 103.79 507.182 103.79C506.215 103.79 505.258 104.02 504.366 104.467C503.475 104.914 502.666 105.568 501.988 106.392C501.31 107.216 500.775 108.193 500.416 109.267C500.056 110.34 499.879 111.488 499.894 112.644C498.776 112.644 497.674 112.952 496.671 113.543C495.669 114.135 494.793 114.994 494.113 116.054C493.433 117.115 492.965 118.349 492.747 119.66C492.529 120.971 492.566 122.324 492.855 123.616C493.145 124.907 493.679 126.101 494.416 127.106C495.152 128.111 496.073 128.9 497.105 129.412C498.138 129.923 499.255 130.144 500.371 130.057C501.486 129.969 502.57 129.576 503.538 128.908C504.646 129.673 505.903 130.075 507.182 130.075C508.462 130.075 509.718 129.673 510.827 128.908C511.795 129.576 512.878 129.969 513.994 130.057C515.109 130.144 516.226 129.923 517.259 129.412C518.291 128.9 519.212 128.111 519.949 127.106C520.686 126.101 521.22 124.907 521.509 123.616C521.798 122.324 521.835 120.971 521.617 119.66C521.399 118.349 520.932 117.115 520.251 116.054C519.571 114.994 518.696 114.135 517.693 113.543C516.691 112.952 515.588 112.644 514.47 112.644Z" fill="black"/>
<path opacity="0.1" d="M537.304 41.7508C539.004 41.7506 540.645 42.4849 541.927 43.8183C543.209 45.1516 544.045 46.9942 544.281 49.0066C544.42 47.8587 544.36 46.689 544.104 45.5704C543.847 44.4517 543.401 43.4083 542.792 42.5058C542.183 41.6031 541.425 40.8607 540.565 40.3248C539.705 39.789 538.761 39.4712 537.794 39.3914C536.826 39.3118 535.855 39.4718 534.942 39.8615C534.029 40.2514 533.192 40.8626 532.486 41.6569C531.779 42.451 531.217 43.4113 530.835 44.4773C530.453 45.5435 530.259 46.6922 530.265 47.8521C530.266 48.2411 530.289 48.6297 530.333 49.0152C530.568 47.0025 531.402 45.1591 532.683 43.8243C533.964 42.4892 535.605 41.7529 537.304 41.7508Z" fill="black"/>
<path opacity="0.1" d="M551.77 56.7938C553.315 57.6423 554.552 59.1304 555.251 60.9836C555.951 62.8366 556.067 64.9299 555.578 66.8773C556.098 65.9037 556.444 64.8126 556.597 63.6719C556.749 62.531 556.704 61.3652 556.463 60.2463C556.223 59.1274 555.793 58.0798 555.199 57.1681C554.606 56.2567 553.862 55.5008 553.014 54.9474C552.167 54.3941 551.233 54.0554 550.271 53.9519C549.309 53.8486 548.339 53.9828 547.422 54.3467C546.506 54.7103 545.661 55.2955 544.942 56.0661C544.222 56.8365 543.643 57.7757 543.239 58.8254C543.105 59.1793 542.99 59.5436 542.897 59.916C543.812 58.2027 545.214 56.943 546.845 56.3691C548.476 55.7953 550.225 55.9462 551.77 56.7938Z" fill="black"/>
<path opacity="0.1" d="M531.122 63.1853C532.667 64.0338 533.903 65.5219 534.603 67.3751C535.303 69.2282 535.419 71.3215 534.93 73.2688C535.104 72.941 535.26 72.5993 535.397 72.2466C536.166 70.2177 536.232 67.9072 535.58 65.8203C534.929 63.7336 533.613 62.0402 531.92 61.111C530.227 60.1816 528.295 60.092 526.548 60.8613C524.8 61.6309 523.378 63.1969 522.593 65.217C522.458 65.5708 522.343 65.9351 522.25 66.3075C523.165 64.5947 524.567 63.3354 526.198 62.7615C527.828 62.1879 529.577 62.3383 531.122 63.1853Z" fill="black"/>
<path opacity="0.1" d="M523.788 90.177C524.553 90.9802 525.05 92.0874 525.186 93.2942C525.323 94.501 525.09 95.7259 524.53 96.7435C524.678 96.5913 524.817 96.4274 524.946 96.2526C525.684 95.2462 526.058 93.9306 525.985 92.5949C525.911 91.2591 525.398 90.0129 524.556 89.1302C524.14 88.6931 523.655 88.3585 523.13 88.1453C522.606 87.9324 522.051 87.8449 521.498 87.8882C520.381 87.9757 519.339 88.5901 518.601 89.5965C518.471 89.7719 518.352 89.958 518.244 90.1535C519.015 89.3562 520.001 88.9194 521.02 88.9236C522.039 88.9279 523.022 89.3731 523.788 90.177Z" fill="black"/>
<path opacity="0.1" d="M590.107 113.421C590.872 114.223 591.369 115.33 591.506 116.536C591.642 117.742 591.41 118.966 590.851 119.983C590.998 119.831 591.136 119.667 591.265 119.493C591.63 118.994 591.91 118.415 592.088 117.788C592.266 117.16 592.339 116.497 592.303 115.836C592.267 115.175 592.122 114.529 591.877 113.934C591.632 113.34 591.291 112.809 590.875 112.372C590.458 111.935 589.974 111.601 589.449 111.388C588.925 111.175 588.37 111.087 587.817 111.131C587.265 111.174 586.724 111.347 586.227 111.64C585.73 111.933 585.287 112.34 584.921 112.839C584.792 113.013 584.672 113.199 584.565 113.393C585.335 112.597 586.321 112.161 587.34 112.166C588.359 112.171 589.341 112.617 590.107 113.421Z" fill="black"/>
<path opacity="0.1" d="M507.413 113.349C508.229 112.617 509.239 112.263 510.255 112.353C511.273 112.443 512.228 112.97 512.945 113.837C512.851 113.633 512.746 113.437 512.629 113.25C511.95 112.206 510.956 111.523 509.86 111.347C508.764 111.17 507.654 111.516 506.769 112.308C505.883 113.101 505.294 114.277 505.126 115.584C504.959 116.892 505.227 118.225 505.873 119.298C505.99 119.484 506.117 119.66 506.253 119.826C505.761 118.76 505.607 117.518 505.821 116.328C506.034 115.137 506.599 114.08 507.413 113.349Z" fill="black"/>
<path opacity="0.1" d="M556.484 94.4622C557.3 93.7306 558.31 93.3772 559.327 93.467C560.344 93.5569 561.299 94.084 562.016 94.9509C561.922 94.7466 561.817 94.5505 561.7 94.364C561.372 93.8198 560.957 93.3593 560.479 93.0091C560.001 92.6591 559.469 92.4265 558.915 92.3249C558.361 92.2233 557.795 92.2549 557.251 92.4177C556.707 92.5806 556.196 92.8714 555.747 93.2733C555.298 93.6751 554.921 94.18 554.637 94.7582C554.353 95.3365 554.168 95.9767 554.094 96.6413C554.019 97.3058 554.056 97.9817 554.202 98.6291C554.348 99.2764 554.6 99.8825 554.945 100.412C555.061 100.599 555.189 100.776 555.326 100.941C554.834 99.8756 554.68 98.6334 554.893 97.4428C555.105 96.2522 555.671 95.1937 556.484 94.4622Z" fill="black"/>
<path d="M550.437 143.541C549.97 143.115 550.029 142.084 550.029 142.084C550.029 142.084 550.844 141.759 551.312 142.193C551.779 142.626 551.961 143.281 551.72 143.652C551.479 144.024 550.905 143.977 550.437 143.541Z" fill="black"/>
<path d="M548.831 144.608C548.364 144.182 548.423 143.151 548.423 143.151C548.423 143.151 549.238 142.826 549.706 143.26C550.173 143.693 550.355 144.348 550.114 144.719C549.873 145.091 549.299 145.044 548.831 144.608Z" fill="black"/>
<path d="M559.894 136.286C559.427 135.859 559.486 134.828 559.486 134.828C559.486 134.828 560.301 134.504 560.769 134.937C561.236 135.37 561.418 136.025 561.177 136.397C560.936 136.768 560.362 136.721 559.894 136.286Z" fill="black"/>
<path d="M513.915 103.284C514.281 102.73 515.139 102.811 515.139 102.811C515.139 102.811 515.4 103.79 515.032 104.345C514.665 104.9 514.117 105.111 513.808 104.819C513.5 104.526 513.548 103.839 513.915 103.284Z" fill="black"/>
<path opacity="0.1" d="M519.292 62.2015C521.755 62.2015 523.752 59.8129 523.752 56.8664C523.752 53.9199 521.755 51.5312 519.292 51.5312C516.828 51.5312 514.831 53.9199 514.831 56.8664C514.831 59.8129 516.828 62.2015 519.292 62.2015Z" fill="black"/>
<g clip-path="url(#clip0)">
<path d="M364.789 171.277L356.566 180.668C355.376 180.031 354.054 179.59 352.67 179.369C353.97 180.811 355.074 182.372 355.959 184.024C357.349 186.633 358.245 189.41 358.616 192.254C359.86 194.527 360.639 196.962 360.918 199.456H364.777C364.713 197.316 364.498 192.479 363.587 190.167C362.482 187.342 361.086 184.209 358.527 182.022L366.054 173.429L373.579 182.022C371.022 184.209 369.627 187.341 368.519 190.155C367.608 192.478 367.38 197.315 367.329 199.455H371.188C371.467 196.961 372.246 194.526 373.49 192.253C373.861 189.409 374.757 186.632 376.147 184.023C377.032 182.371 378.136 180.81 379.436 179.368C378.053 179.59 376.732 180.031 375.542 180.668L367.319 171.277V168.421C367.312 168.358 367.297 168.296 367.275 168.236C369.034 167.731 370.101 166.223 369.799 164.673C369.496 163.123 367.911 161.985 366.054 161.985C364.197 161.985 362.613 163.123 362.31 164.673C362.007 166.223 363.075 167.731 364.833 168.236C364.812 168.296 364.797 168.358 364.789 168.421V171.277Z" fill="black"/>
<path d="M373.72 199.456H379.856C379.628 194.79 382.854 189.193 384.891 186.132C375.707 188.744 374.024 196.577 373.72 199.456V199.456Z" fill="black"/>
<path d="M382.766 196.149C382.47 197.233 382.342 198.345 382.386 199.456H386.371C386.504 198.52 386.781 197.603 387.193 196.727C387.999 195.091 389.114 193.576 390.495 192.243C388.724 192.53 387.041 193.12 385.549 193.977C384.497 194.579 383.559 195.311 382.766 196.149V196.149Z" fill="black"/>
<path d="M392.62 201.596H339.488C338.092 201.6 336.962 202.556 336.958 203.737H395.151C395.146 202.556 394.016 201.6 392.62 201.596Z" fill="black"/>
<path d="M340.753 206.947C340.759 207.664 340.822 208.379 340.943 209.088H362.259C362.958 209.088 363.524 209.567 363.524 210.158C363.524 210.749 362.958 211.228 362.259 211.228H341.461C343.739 218.175 351.207 222.987 359.729 223H372.38C382.854 222.989 391.343 215.809 391.355 206.947V205.877H340.753V206.947ZM367.319 209.088H368.584C369.283 209.088 369.849 209.567 369.849 210.158C369.849 210.749 369.283 211.228 368.584 211.228H367.319C366.621 211.228 366.054 210.749 366.054 210.158C366.054 209.567 366.621 209.088 367.319 209.088Z" fill="black"/>
<path d="M352.252 199.456H358.388C358.084 196.577 356.402 188.744 347.217 186.132C349.254 189.193 352.48 194.79 352.252 199.456V199.456Z" fill="black"/>
<path d="M345.737 199.456H349.722C349.767 198.348 349.639 197.24 349.343 196.16C348.549 195.319 347.611 194.583 346.56 193.977C345.068 193.12 343.384 192.53 341.613 192.243C342.995 193.576 344.11 195.091 344.915 196.727C345.328 197.603 345.604 198.52 345.737 199.456V199.456Z" fill="black"/>
</g>
<path d="M199.794 186.183C197.987 185.641 194.842 185.777 192.955 185.777C192.105 185.777 191.365 186.368 191.143 187.217C190.958 188.029 191.365 188.878 192.142 189.284C194.012 190.174 195.354 191.023 196.726 193.16H208.297C206.918 189.583 201.95 186.183 199.794 186.183Z" fill="black"/>
<path d="M214.101 183.23C213.103 182.197 212.068 181.237 211.033 180.388C210.293 179.76 209.517 179.207 208.778 178.69C208.075 178.247 207.151 178.321 206.522 178.837C205.894 179.428 205.709 180.314 206.079 181.052C206.56 182.049 207.151 183.858 207.447 186.109C209.628 187.955 211.329 190.392 212.327 193.16H219.869C218.76 189.321 216.615 185.962 214.101 183.23Z" fill="black"/>
<path d="M246.524 187.217C246.302 186.368 245.563 185.777 244.712 185.777C240.735 185.777 237.578 185.423 233.732 188.029C233.658 189.764 233.732 191.573 233.991 193.16H240.941C242.313 191.023 243.655 190.174 245.526 189.284C246.302 188.878 246.709 188.029 246.524 187.217Z" fill="black"/>
<path d="M241.015 196.852C225.474 196.852 212.19 196.852 196.652 196.852C195.63 196.852 194.803 197.677 194.803 198.697C194.803 199.717 195.63 200.543 196.652 200.543H198.594C199.532 210.875 208.246 219 218.834 219C229.421 219 238.135 210.875 239.073 200.543H241.015C242.037 200.543 242.864 199.717 242.864 198.697C242.864 197.677 242.037 196.852 241.015 196.852Z" fill="black"/>
<path d="M223.64 169.609L222.605 165.561C223.677 164.564 224.379 163.124 224.379 161.537C224.379 158.473 221.902 156 218.834 156C215.765 156 213.288 158.473 213.288 161.537C213.288 163.124 213.991 164.564 215.063 165.561L214.028 169.609L212.105 176.512C213.14 177.287 214.212 178.173 215.211 179.133L217.503 170.901L218.501 167.037C218.612 167.037 218.723 167.074 218.834 167.074C218.945 167.074 219.056 167.037 219.167 167.037L220.165 170.901L222.457 179.133C223.455 178.173 224.527 177.287 225.562 176.512L223.64 169.609ZM218.834 163.383C217.798 163.383 216.985 162.571 216.985 161.537C216.985 160.503 217.798 159.691 218.834 159.691C219.869 159.691 220.682 160.503 220.682 161.537C220.682 162.571 219.869 163.383 218.834 163.383Z" fill="black"/>
<path d="M231.144 178.838C230.516 178.321 229.592 178.247 228.889 178.69C228.15 179.207 227.374 179.76 226.634 180.388C225.599 181.237 224.564 182.197 223.603 183.23V183.267C222.678 184.264 221.791 185.334 221.015 186.479C222.161 188.546 223.122 190.798 223.676 193.16H230.257C230.183 192.717 230.146 192.274 230.109 191.794C229.777 187.955 230.294 183.673 231.588 181.052C231.958 180.314 231.773 179.428 231.144 178.838Z" fill="black"/>
<path d="M274.878 179.568C272.602 176.506 271.212 172.467 271.233 168.035L273.132 168.044C273.094 176.471 278.602 183.353 285.41 183.384L285.401 185.294C282.164 185.279 279.191 183.941 276.806 181.726C276.152 187.988 270.86 192.869 264.469 192.84L263.52 192.836L263.524 191.88C263.554 185.39 268.558 180.078 274.878 179.568Z" fill="black"/>
<path d="M311.887 209.297C314.505 209.309 316.626 211.461 316.614 214.095C316.602 216.728 314.461 218.861 311.843 218.849C309.224 218.837 307.103 216.685 307.115 214.051C307.128 211.418 309.268 209.285 311.887 209.297Z" fill="black"/>
<path d="M308.136 198.772C305.517 198.76 303.396 196.608 303.409 193.974C303.421 191.341 305.561 189.208 308.18 189.22C310.799 189.232 312.919 191.384 312.907 194.018C312.895 196.651 310.755 198.784 308.136 198.772Z" fill="black"/>
<path d="M302.397 207.343C304.187 207.351 305.82 208.391 306.615 209.979C305.716 211.141 305.223 212.562 305.216 214.042C305.213 214.621 305.287 215.198 305.436 215.764C304.574 216.502 303.498 216.9 302.353 216.895C299.734 216.883 297.614 214.73 297.626 212.097C297.638 209.463 299.778 207.331 302.397 207.343Z" fill="black"/>
<path d="M305.255 205.445C305.268 202.812 307.408 200.679 310.027 200.691C312.645 200.703 314.766 202.856 314.754 205.489C314.75 206.307 314.542 207.092 314.149 207.794C313.428 207.527 312.673 207.39 311.896 207.386C310.508 207.38 309.154 207.819 308.031 208.617C307.378 207.559 306.436 206.696 305.309 206.136C305.272 205.896 305.254 205.668 305.255 205.445Z" fill="black"/>
<path d="M292.912 204.433C294.979 204.443 296.757 205.762 297.393 207.697C296.321 208.911 295.734 210.45 295.726 212.088C295.725 212.386 295.744 212.687 295.785 212.99C294.95 213.64 293.932 213.99 292.868 213.986C290.249 213.974 288.128 211.821 288.141 209.188C288.153 206.554 290.293 204.421 292.912 204.433Z" fill="black"/>
<path d="M295.775 201.581C295.787 198.947 297.927 196.815 300.546 196.827C301.159 196.83 301.754 196.951 302.32 197.185C302.923 198.296 303.834 199.22 304.932 199.836C305.061 200.162 305.154 200.501 305.208 200.847C304.035 202.077 303.367 203.72 303.356 205.426C303.322 205.451 303.289 205.475 303.256 205.499C302.958 205.455 302.677 205.434 302.406 205.432C301.318 205.427 300.247 205.694 299.281 206.207C299.091 206.151 298.896 206.078 298.691 205.987C298.098 204.908 297.209 204.006 296.143 203.399C295.895 202.803 295.772 202.193 295.775 201.581Z" fill="black"/>
<path d="M291.056 194.873C291.487 194.875 291.921 194.942 292.355 195.073C292.784 196.396 293.609 197.545 294.708 198.366C294.165 199.342 293.88 200.434 293.875 201.572C293.873 201.918 293.9 202.265 293.957 202.61C293.615 202.554 293.268 202.525 292.921 202.523C291.448 202.516 290.031 202.999 288.867 203.892C287.296 203.079 286.277 201.426 286.285 199.627C286.297 196.993 288.438 194.861 291.056 194.873Z" fill="black"/>
<path d="M283.431 200.569C283.783 200.571 284.136 200.613 284.484 200.696C284.785 202.608 285.894 204.288 287.501 205.306C286.697 206.427 286.248 207.78 286.241 209.172C285.416 209.792 284.418 210.127 283.387 210.122C280.768 210.11 278.648 207.958 278.66 205.324C278.672 202.691 280.812 200.557 283.431 200.569Z" fill="black"/>
<path d="M281.858 191.019C282.45 193.031 283.973 194.66 285.916 195.392C285.116 196.364 284.602 197.547 284.44 198.796C283.935 198.701 283.502 198.659 283.44 198.659C281.968 198.652 280.55 199.134 279.386 200.028C277.815 199.214 276.796 197.562 276.804 195.762C276.817 193.034 279.138 190.833 281.858 191.019Z" fill="black"/>
<path d="M298.135 185.69C298.004 185.929 297.847 186.163 297.667 186.387C296.593 186.55 295.582 186.976 294.712 187.626C294.111 185.001 291.967 182.959 289.293 182.527C289.714 180.312 291.659 178.636 293.981 178.647C295.742 178.655 297.342 179.643 298.157 181.193C297.895 181.915 297.762 182.669 297.758 183.441C297.754 184.211 297.881 184.967 298.135 185.69Z" fill="black"/>
<path d="M307.1 187.4C306.286 187.531 305.515 187.808 304.806 188.226C304.667 188.24 304.527 188.248 304.385 188.247C301.766 188.235 299.646 186.083 299.658 183.449C299.67 180.816 301.81 178.683 304.429 178.695C307.048 178.707 309.168 180.859 309.156 183.493C309.149 185.063 308.384 186.51 307.1 187.4Z" fill="black"/>
<path d="M302.13 189.753C302.304 189.939 302.46 190.134 302.598 190.334C301.898 191.41 301.515 192.676 301.509 193.965C301.507 194.315 301.533 194.661 301.585 195.001C301.247 194.946 300.902 194.918 300.555 194.916C298.775 194.908 297.104 195.603 295.857 196.846C294.637 195.949 293.907 194.523 293.915 192.975C293.915 192.832 293.925 192.69 293.94 192.55C294.363 191.839 294.646 191.066 294.784 190.247C295.883 188.655 297.923 187.842 299.912 188.396C300.555 188.988 301.313 189.453 302.13 189.753Z" fill="black"/>
<path d="M292.982 189.15C292.975 190.662 292.262 192.066 291.06 192.962C289.875 192.958 288.719 193.269 287.698 193.867C285.302 193.598 283.473 191.559 283.484 189.106C283.496 186.473 285.636 184.34 288.255 184.352C290.874 184.364 292.994 186.517 292.982 189.15Z" fill="black"/>
<defs>
<clipPath id="clip0">
<rect width="72.1084" height="61" fill="white" transform="translate(330 162)"/>
</clipPath>
</defs>
</svg>
