<svg width="1145" height="731" viewBox="0 0 1145 731" fill="none" xmlns="http://www.w3.org/2000/svg">
<path d="M856.5 678.47L848.37 708.4C846.844 714.019 843.512 718.979 838.887 722.516C834.262 726.053 828.602 727.969 822.78 727.97H318.78C312.958 727.969 307.298 726.053 302.673 722.516C298.048 718.979 294.716 714.019 293.19 708.4L285.06 678.47C277.98 652.39 296.5 625.76 323.5 624.55C324.16 624.55 324.82 624.5 325.5 624.5H816.11C816.78 624.5 817.44 624.5 818.11 624.55C845.08 625.76 863.6 652.39 856.5 678.47Z" fill="black"/>
<path opacity="0.1" d="M807.68 638.12C807.68 670.45 697.96 696.66 562.62 696.66C427.28 696.66 317.56 670.45 317.56 638.12C317.56 633.42 319.87 628.86 324.23 624.5H801.01C805.36 628.86 807.68 633.42 807.68 638.12Z" fill="black"/>
<path d="M874.39 504.85C874.39 480.97 852.44 461.61 825.39 461.61C798.34 461.61 776.39 480.97 776.39 504.85C749.33 504.85 727.39 524.22 727.39 548.1C727.39 571.98 749.34 591.35 776.39 591.35C784.904 591.38 793.303 589.393 800.9 585.55C808.504 589.362 816.894 591.347 825.4 591.347C833.906 591.347 842.296 589.362 849.9 585.55C857.497 589.393 865.896 591.38 874.41 591.35C901.48 591.35 923.41 571.98 923.41 548.1C923.41 524.22 901.5 504.85 874.39 504.85Z" fill="black"/>
<path opacity="0.1" d="M874.39 504.85C874.39 480.97 852.44 461.61 825.39 461.61C798.34 461.61 776.39 480.97 776.39 504.85C749.33 504.85 727.39 524.22 727.39 548.1C727.39 571.98 749.34 591.35 776.39 591.35C784.904 591.38 793.303 589.393 800.9 585.55C808.504 589.362 816.894 591.347 825.4 591.347C833.906 591.347 842.296 589.362 849.9 585.55C857.497 589.393 865.896 591.38 874.41 591.35C901.48 591.35 923.41 571.98 923.41 548.1C923.41 524.22 901.5 504.85 874.39 504.85Z" fill="black"/>
<path d="M758.57 285.98C758.576 279.981 757.478 274.032 755.33 268.43C766.247 264.562 775.445 256.96 781.3 246.967C787.155 236.974 789.29 225.234 787.328 213.82C785.366 202.405 779.433 192.052 770.577 184.588C761.721 177.124 750.512 173.03 738.93 173.03C738.926 161.004 734.509 149.397 726.517 140.41C718.525 131.423 707.513 125.681 695.57 124.273C683.626 122.865 671.581 125.889 661.718 132.771C651.855 139.653 644.86 149.914 642.06 161.61C641.61 161.61 641.16 161.61 640.71 161.61C640.721 149.375 636.163 137.577 627.93 128.526C619.697 119.476 608.381 113.825 596.2 112.681C584.018 111.538 571.849 114.983 562.075 122.343C552.301 129.703 545.627 140.447 543.36 152.47C536.116 146.777 527.417 143.237 518.256 142.254C509.095 141.272 499.843 142.887 491.557 146.914C483.27 150.941 476.284 157.219 471.397 165.029C466.51 172.839 463.919 181.867 463.92 191.08C453.357 191.095 443.081 194.515 434.617 200.834C426.153 207.153 419.952 216.032 416.935 226.155C413.917 236.278 414.245 247.103 417.869 257.025C421.493 266.946 428.219 275.435 437.05 281.23C436.418 284.408 436.1 287.64 436.1 290.88C428.565 290.876 421.131 292.607 414.372 295.937C407.613 299.267 401.711 304.108 397.123 310.084C392.534 316.061 389.383 323.013 387.912 330.403C386.441 337.792 386.69 345.422 388.64 352.7C390.59 359.978 394.188 366.709 399.157 372.374C404.125 378.038 410.331 382.484 417.292 385.366C424.254 388.248 431.786 389.489 439.304 388.994C446.823 388.499 454.126 386.28 460.65 382.51C468.116 386.82 476.584 389.09 485.205 389.09C493.826 389.09 502.294 386.82 509.76 382.51C518.859 387.765 529.404 389.962 539.844 388.777C550.285 387.593 560.069 383.09 567.76 375.93C568.61 375.93 569.46 376 570.32 376C578.945 376.007 587.418 373.734 594.88 369.41C605.847 375.768 618.856 377.615 631.16 374.56C638.854 380.239 648.039 383.548 657.587 384.081C667.136 384.614 676.632 382.348 684.91 377.56C692.376 381.87 700.844 384.139 709.465 384.139C718.086 384.139 726.554 381.87 734.02 377.56C740.544 381.33 747.847 383.549 755.366 384.044C762.884 384.539 770.416 383.298 777.378 380.416C784.339 377.534 790.545 373.088 795.513 367.424C800.482 361.759 804.08 355.028 806.03 347.75C807.98 340.472 808.229 332.842 806.758 325.453C805.287 318.063 802.136 311.111 797.547 305.134C792.959 299.158 787.057 294.317 780.298 290.987C773.539 287.657 766.105 285.926 758.57 285.93V285.98ZM534.31 290.89C534.307 288.776 534.167 286.665 533.89 284.57C535.15 283.98 536.39 283.36 537.59 282.66C539.551 283.808 541.593 284.81 543.7 285.66C541.278 287.231 538.997 289.007 536.88 290.97C536.03 290.91 535.17 290.89 534.31 290.89V290.89Z" fill="black"/>
<path d="M736.2 421.3C736.025 409.681 731.287 398.596 723.008 390.441C714.73 382.286 703.576 377.715 691.955 377.715C680.334 377.715 669.18 382.286 660.902 390.441C652.623 398.596 647.885 409.681 647.71 421.3C640.921 421.296 634.221 422.855 628.131 425.855C622.04 428.855 616.722 433.217 612.587 438.602C608.452 443.987 605.612 450.252 604.286 456.91C602.961 463.569 603.185 470.444 604.942 477.002C606.7 483.56 609.942 489.626 614.419 494.73C618.896 499.834 624.488 503.839 630.761 506.436C637.035 509.033 643.821 510.151 650.596 509.704C657.371 509.257 663.952 507.258 669.83 503.86C676.555 507.751 684.186 509.799 691.955 509.799C699.724 509.799 707.355 507.751 714.08 503.86C719.957 507.251 726.535 509.244 733.305 509.686C740.075 510.128 746.857 509.007 753.125 506.41C759.392 503.812 764.979 499.808 769.452 494.706C773.925 489.605 777.165 483.543 778.921 476.989C780.676 470.436 780.901 463.566 779.578 456.912C778.255 450.257 775.419 443.996 771.289 438.613C767.16 433.23 761.847 428.868 755.763 425.866C749.678 422.864 742.985 421.302 736.2 421.3V421.3Z" fill="black"/>
<path opacity="0.1" d="M736.2 421.3C736.025 409.681 731.287 398.596 723.008 390.441C714.73 382.286 703.576 377.715 691.955 377.715C680.334 377.715 669.18 382.286 660.902 390.441C652.623 398.596 647.885 409.681 647.71 421.3C640.921 421.296 634.221 422.855 628.131 425.855C622.04 428.855 616.722 433.217 612.587 438.602C608.452 443.987 605.612 450.252 604.286 456.91C602.961 463.569 603.185 470.444 604.942 477.002C606.7 483.56 609.942 489.626 614.419 494.73C618.896 499.834 624.488 503.839 630.761 506.436C637.035 509.033 643.821 510.151 650.596 509.704C657.371 509.257 663.952 507.258 669.83 503.86C676.555 507.751 684.186 509.799 691.955 509.799C699.724 509.799 707.355 507.751 714.08 503.86C719.957 507.251 726.535 509.244 733.305 509.686C740.075 510.128 746.857 509.007 753.125 506.41C759.392 503.812 764.979 499.808 769.452 494.706C773.925 489.605 777.165 483.543 778.921 476.989C780.676 470.436 780.901 463.566 779.578 456.912C778.255 450.257 775.419 443.996 771.289 438.613C767.16 433.23 761.847 428.868 755.763 425.866C749.678 422.864 742.985 421.302 736.2 421.3V421.3Z" fill="black"/>
<path opacity="0.1" d="M758.603 294.514C758.609 288.514 757.511 282.565 755.363 276.964C766.28 273.096 775.478 265.494 781.333 255.501C787.188 245.508 789.323 233.768 787.361 222.353C785.399 210.939 779.466 200.585 770.61 193.122C761.754 185.658 750.545 181.564 738.963 181.564C738.959 169.537 734.543 157.93 726.551 148.944C718.558 139.957 707.547 134.215 695.603 132.807C683.659 131.399 671.614 134.423 661.751 141.304C651.888 148.186 644.894 158.448 642.093 170.144C641.643 170.144 641.193 170.144 640.743 170.144C640.754 157.909 636.196 146.11 627.963 137.06C619.73 128.009 608.414 122.359 596.233 121.215C584.051 120.071 571.882 123.517 562.108 130.877C552.334 138.237 545.66 148.98 543.393 161.004C536.149 155.311 527.45 151.77 518.289 150.788C509.129 149.805 499.876 151.42 491.59 155.448C483.304 159.475 476.318 165.752 471.43 173.563C466.543 181.373 463.952 190.4 463.953 199.614C453.391 199.628 443.114 203.049 434.65 209.368C426.186 215.686 419.985 224.566 416.968 234.689C413.951 244.811 414.278 255.637 417.902 265.558C421.526 275.48 428.252 283.968 437.083 289.764C436.451 292.941 436.133 296.174 436.133 299.414C428.598 299.41 421.164 301.14 414.405 304.47C407.646 307.8 401.744 312.641 397.156 318.618C392.567 324.594 389.416 331.546 387.945 338.936C386.474 346.326 386.723 353.955 388.673 361.233C390.623 368.511 394.222 375.243 399.19 380.907C404.159 386.572 410.364 391.017 417.326 393.899C424.287 396.781 431.819 398.023 439.337 397.527C446.856 397.032 454.16 394.814 460.683 391.044C468.149 395.354 476.618 397.623 485.238 397.623C493.859 397.623 502.328 395.354 509.793 391.044C518.892 396.299 529.437 398.495 539.877 397.311C550.318 396.126 560.103 391.623 567.793 384.464C568.643 384.464 569.493 384.534 570.353 384.534C578.978 384.541 587.451 382.267 594.913 377.944C605.88 384.302 618.89 386.149 631.193 383.094C638.887 388.773 648.072 392.082 657.621 392.615C667.169 393.148 676.665 390.881 684.943 386.094C692.409 390.404 700.878 392.673 709.498 392.673C718.119 392.673 726.588 390.404 734.053 386.094C740.577 389.864 747.881 392.082 755.399 392.577C762.917 393.073 770.449 391.831 777.411 388.949C784.373 386.067 790.578 381.622 795.546 375.957C800.515 370.293 804.113 363.561 806.063 356.283C808.013 349.005 808.262 341.376 806.791 333.986C805.32 326.597 802.169 319.644 797.581 313.668C792.992 307.691 787.09 302.851 780.331 299.52C773.572 296.19 766.138 294.46 758.603 294.464V294.514ZM534.343 299.424C534.34 297.31 534.2 295.199 533.923 293.104C535.183 292.514 536.423 291.894 537.623 291.194C539.584 292.341 541.626 293.344 543.733 294.194C541.312 295.765 539.03 297.541 536.913 299.504C536.063 299.444 535.203 299.424 534.343 299.424V299.424Z" fill="black"/>
<path d="M721.29 527.43C717.47 525.91 713.6 524.37 709.52 523.85C709.11 523.85 708.7 523.77 708.28 523.74C708.28 523.32 708.28 522.91 708.33 522.5C708.55 517.5 710.1 512.34 713.6 508.73C717.1 505.12 721.97 503.34 724.25 499.08C715.914 496.638 707.285 495.343 698.6 495.23C696.39 495.23 694.04 495.23 692.19 496.49C689.92 497.96 688.94 500.74 688.19 503.36C685.89 512.04 684.34 520.54 681.71 529.01L681.02 529.17C671.72 531.17 660.02 529.62 655.75 521.25C656.816 517.029 658.153 512.88 659.75 508.83C664.75 496.38 672.41 485.19 679.98 474.1C684.88 466.907 689.787 459.72 694.7 452.54C687.345 450.322 679.874 448.51 672.32 447.11C670.72 446.81 668.91 446.57 667.58 447.51C666.677 448.28 666.014 449.294 665.67 450.43C658.45 468.15 649.6 487.54 647.09 507.02C645.684 506.257 644.239 505.569 642.76 504.96L619.5 495.04C618.269 494.627 617.157 493.919 616.26 492.98C614.14 490.35 616.26 486.17 619.36 484.77C622.46 483.37 625.97 483.77 629.36 483.47C632.75 483.17 636.49 481.94 637.75 478.8C639.21 475.19 636.42 471.11 633.01 469.22C629.6 467.33 625.59 466.8 622.01 465.22C619.257 463.933 616.842 462.022 614.957 459.638C613.072 457.255 611.769 454.465 611.15 451.49L605.6 451.23C612.92 444.23 620.51 437.52 629.23 432.37C633.44 429.88 637.9 427.77 641.82 424.84C646.982 420.882 651.025 415.648 653.55 409.653C656.075 403.658 656.995 397.109 656.22 390.65C655.72 386.89 654.65 383 655.84 379.4C656.84 376.47 659.1 374.22 661.33 372.09L681.42 352.87C668.633 349.958 655.53 348.668 642.42 349.03C639.1 349.13 635.67 349.35 632.7 350.85C627.28 353.59 624.7 359.79 622.58 365.48C620.965 369.488 619.658 373.613 618.67 377.82C617.19 384.92 617.41 392.7 613.4 398.73C610.22 403.51 604.93 406.33 600.18 409.55C586.644 418.77 576.541 432.213 571.45 447.78C571.13 448.78 570.59 450.06 569.97 451.49C558.2 452.49 546.67 454.73 535.78 459.31C522.09 465.07 510.14 474.22 498.41 483.31C485.49 493.31 471.9 504.5 467.36 520.22C462.31 537.67 470.1 556.81 482.57 570.02C492.77 580.81 505.71 588.41 518.76 595.24C527.29 599.7 528.71 598.79 536.2 592.79L556.34 576.65C562.09 572.05 567.94 567.33 571.85 561.09C577.24 552.5 578.57 541.59 585.1 533.82C594.04 523.17 612.27 522.28 622.22 531.99C625.08 534.79 627.57 538.45 631.47 539.38C633.37 539.84 635.47 539.58 637.21 540.38C640.53 541.96 641.03 546.38 642.21 549.82C645.46 559.09 656.5 563.94 666.21 562.55C675.92 561.16 684.29 554.85 690.86 547.55C692.65 545.55 694.42 543.43 696.86 542.24C698.812 541.372 700.924 540.922 703.06 540.92C710.151 540.63 717.196 542.191 723.5 545.45C729.37 548.45 734.5 552.9 740.67 555.24C752.88 559.86 766.53 555.47 778.49 550.24L721.29 527.43Z" fill="black"/>
<path opacity="0.1" d="M721.29 527.43C717.47 525.91 713.6 524.37 709.52 523.85C709.11 523.85 708.7 523.77 708.28 523.74C708.28 523.32 708.28 522.91 708.33 522.5C708.55 517.5 710.1 512.34 713.6 508.73C717.1 505.12 721.97 503.34 724.25 499.08C715.914 496.638 707.285 495.343 698.6 495.23C696.39 495.23 694.04 495.23 692.19 496.49C689.92 497.96 688.94 500.74 688.19 503.36C685.89 512.04 684.34 520.54 681.71 529.01L681.02 529.17C671.72 531.17 660.02 529.62 655.75 521.25C656.816 517.029 658.153 512.88 659.75 508.83C664.75 496.38 672.41 485.19 679.98 474.1C684.88 466.907 689.787 459.72 694.7 452.54C687.345 450.322 679.874 448.51 672.32 447.11C670.72 446.81 668.91 446.57 667.58 447.51C666.677 448.28 666.014 449.294 665.67 450.43C658.45 468.15 649.6 487.54 647.09 507.02C645.684 506.257 644.239 505.569 642.76 504.96L619.5 495.04C618.269 494.627 617.157 493.919 616.26 492.98C614.14 490.35 616.26 486.17 619.36 484.77C622.46 483.37 625.97 483.77 629.36 483.47C632.75 483.17 636.49 481.94 637.75 478.8C639.21 475.19 636.42 471.11 633.01 469.22C629.6 467.33 625.59 466.8 622.01 465.22C619.257 463.933 616.842 462.022 614.957 459.638C613.072 457.255 611.769 454.465 611.15 451.49L605.6 451.23C612.92 444.23 620.51 437.52 629.23 432.37C633.44 429.88 637.9 427.77 641.82 424.84C646.982 420.882 651.025 415.648 653.55 409.653C656.075 403.658 656.995 397.109 656.22 390.65C655.72 386.89 654.65 383 655.84 379.4C656.84 376.47 659.1 374.22 661.33 372.09L681.42 352.87C668.633 349.958 655.53 348.668 642.42 349.03C639.1 349.13 635.67 349.35 632.7 350.85C627.28 353.59 624.7 359.79 622.58 365.48C620.965 369.488 619.658 373.613 618.67 377.82C617.19 384.92 617.41 392.7 613.4 398.73C610.22 403.51 604.93 406.33 600.18 409.55C586.644 418.77 576.541 432.213 571.45 447.78C571.13 448.78 570.59 450.06 569.97 451.49C558.2 452.49 546.67 454.73 535.78 459.31C522.09 465.07 510.14 474.22 498.41 483.31C485.49 493.31 471.9 504.5 467.36 520.22C462.31 537.67 470.1 556.81 482.57 570.02C492.77 580.81 505.71 588.41 518.76 595.24C527.29 599.7 528.71 598.79 536.2 592.79L556.34 576.65C562.09 572.05 567.94 567.33 571.85 561.09C577.24 552.5 578.57 541.59 585.1 533.82C594.04 523.17 612.27 522.28 622.22 531.99C625.08 534.79 627.57 538.45 631.47 539.38C633.37 539.84 635.47 539.58 637.21 540.38C640.53 541.96 641.03 546.38 642.21 549.82C645.46 559.09 656.5 563.94 666.21 562.55C675.92 561.16 684.29 554.85 690.86 547.55C692.65 545.55 694.42 543.43 696.86 542.24C698.812 541.372 700.924 540.922 703.06 540.92C710.151 540.63 717.196 542.191 723.5 545.45C729.37 548.45 734.5 552.9 740.67 555.24C752.88 559.86 766.53 555.47 778.49 550.24L721.29 527.43Z" fill="black"/>
<path d="M557.85 404.84C557.85 380.25 531.95 360.33 499.99 360.33C468.03 360.33 442.13 380.23 442.13 404.84C410.13 404.84 384.27 424.76 384.27 449.35C384.27 473.94 410.17 493.85 442.13 493.85C452.087 493.893 461.942 491.849 471.06 487.85C480.196 491.789 490.041 493.82 499.99 493.82C509.939 493.82 519.784 491.789 528.92 487.85C538.038 491.849 547.893 493.893 557.85 493.85C589.85 493.85 615.71 473.93 615.71 449.35C615.71 424.77 589.81 404.84 557.85 404.84Z" fill="black"/>
<path opacity="0.1" d="M557.85 404.84C557.85 380.25 531.95 360.33 499.99 360.33C468.03 360.33 442.13 380.23 442.13 404.84C410.13 404.84 384.27 424.76 384.27 449.35C384.27 473.94 410.17 493.85 442.13 493.85C452.087 493.893 461.942 491.849 471.06 487.85C480.196 491.789 490.041 493.82 499.99 493.82C509.939 493.82 519.784 491.789 528.92 487.85C538.038 491.849 547.893 493.893 557.85 493.85C589.85 493.85 615.71 473.93 615.71 449.35C615.71 424.77 589.81 404.84 557.85 404.84Z" fill="black"/>
<path d="M681.94 656.23L648.77 640.96C646.11 639.73 643.16 638.2 642.33 635.38C642.035 633.854 642.035 632.286 642.33 630.76C643.128 622.824 641.403 614.839 637.4 607.94C634.91 603.67 631.54 599.83 630.05 595.11C626.87 585.11 633.05 574.52 633.35 563.98C633.68 553.72 628.35 543.85 620.76 536.9C618.51 534.83 616.04 532.9 614.27 530.45C609.13 523.23 611.27 513.45 613.71 504.82L614.34 504.24C614.81 503.78 614.46 501.81 613.6 498.89C623.188 496.333 632.227 492.043 640.27 486.23C642.82 484.38 645.27 482.35 648.27 481.17C652.39 479.52 657.06 479.71 661.22 478.17C668.98 475.28 673.29 467.17 676.9 459.73C685.45 442.14 694.15 423.96 695.23 404.43C688.21 398.999 679.677 395.883 670.81 395.51C669.33 395.45 667.65 395.51 666.68 396.67C666.135 397.406 665.79 398.271 665.68 399.18C662.651 413.118 657.422 426.486 650.19 438.78C647.299 443.945 643.753 448.714 639.64 452.97C634.64 457.97 628.5 461.7 622.46 465.41C617.38 468.52 610.58 471.55 604.81 475.12C600.81 464.84 597.16 455.46 597.63 454.02C602.652 438.336 602.847 421.506 598.19 405.71C597.03 401.79 595.55 397.92 595.19 393.84C594.83 389.76 595.64 385.74 595.96 381.68C596.59 373.63 595.36 365.56 595.41 357.48C595.47 346.54 597.87 335.76 600.26 325.08C593.613 323.892 586.846 323.529 580.11 324C578.782 324.005 577.477 324.349 576.32 325C574.64 326.09 574.01 328.19 573.44 330.11C568.99 345.02 560.92 358.63 556.13 373.44C551.34 388.25 550.31 405.6 559.22 418.36C562.39 422.89 566.82 426.99 567.52 432.47C567.89 435.37 567.13 438.28 566.37 441.11C565.02 446.18 586.74 500.66 587.95 505.69C587.95 505.83 588.03 505.95 588.06 506.08C587.38 506.23 586.69 506.36 586 506.52C585.083 520.687 579.603 534.177 570.38 544.97C569.155 541.487 568.287 537.889 567.79 534.23C567.04 528.73 567.11 523.06 565.4 517.78C562.84 509.9 556.66 503.86 551.26 497.59C541.537 486.274 533.859 473.351 528.57 459.4C524.494 460.913 520.317 462.14 516.07 463.07C513.82 463.57 506.07 463.58 504.85 465.59C502.97 468.59 511.37 482.54 513.03 485.75C518.88 497.04 528.74 505.86 534.53 517.18C536.945 522.204 538.941 527.418 540.5 532.77C543.66 542.77 546.82 552.77 549.24 562.93C546.34 565.93 544.05 569.59 541.56 573C532.73 585.014 521.044 594.637 507.56 601C505.95 601.76 504.17 602.61 503.48 604.25C503.363 604.53 503.276 604.822 503.22 605.12C497.72 601.24 492.58 596.91 489 591.27C487.42 588.77 486.17 586.06 484.45 583.66C478.66 575.59 468.53 572.18 460.24 566.66C456.74 564.34 453.48 561.59 449.61 559.96C445.36 558.16 440.66 557.82 436.06 557.51C432.29 557.25 417.83 554.24 415.97 557.61C413.33 562.38 421.7 569.35 425.05 571.03C430.62 573.82 436.99 574.53 442.81 576.74C448.071 578.902 452.955 581.886 457.28 585.58C459.17 586.974 460.825 588.662 462.18 590.58C463.62 592.83 464.29 595.48 465.5 597.86C469.38 605.49 477.77 608.98 485.28 613.47C483.287 613.557 481.326 614 479.49 614.78C473.9 617.32 471.3 623.61 467.66 628.56C464.41 632.95 460.13 636.46 456.55 640.56C452.97 644.66 449.99 649.79 450.26 655.24C450.43 658.69 451.82 662.46 449.99 665.39C454.2 667.21 459.38 669.39 463.94 669.94C468.5 670.49 473.44 669.62 476.85 666.55C477.906 665.423 479.039 664.371 480.24 663.4C483.13 661.47 487.09 662.01 490.18 663.59C493.27 665.17 495.82 667.64 498.65 669.67C502.691 672.531 507.296 674.497 512.157 675.437C517.018 676.377 522.024 676.269 526.84 675.12C528.84 674.64 531.71 674.23 531.09 672.31C526.858 670.334 523.254 667.226 520.679 663.329C518.104 659.432 516.658 654.898 516.5 650.23C519.649 649.629 522.902 649.896 525.911 651.002C528.919 652.108 531.57 654.012 533.58 656.51C530.8 656.63 528.96 660.37 530.58 662.65C535.876 662.545 541.07 661.171 545.726 658.645C550.382 656.118 554.365 652.513 557.34 648.13C559.523 647.235 561.897 646.907 564.241 647.175C566.585 647.443 568.823 648.3 570.747 649.665C572.672 651.029 574.22 652.858 575.249 654.982C576.277 657.105 576.752 659.454 576.63 661.81L591.09 668.95C593.36 670.07 595.77 671.22 598.3 671.05C600.83 670.88 603.41 668.84 603.22 666.32C603 663.43 599.53 660.48 601.43 658.32C604.83 659.84 607.43 662.84 610.92 664.15C614.41 665.46 619.55 663.71 619.36 659.99C619.206 658.751 618.726 657.574 617.97 656.58C614.06 650.623 608.862 645.62 602.76 641.94C602.31 638.67 609.76 635.08 612.02 637.52L630.34 657.71C631.765 659.447 633.452 660.952 635.34 662.17C641.89 665.96 650.07 662.17 657.63 662.17C665.81 662.17 674.18 666.83 681.79 663.86C683.79 663.09 685.79 661.2 685.22 659.14C684.77 657.66 683.28 656.89 681.94 656.23Z" fill="black"/>
<path d="M731.44 280.05C731.444 275.062 730.528 270.116 728.74 265.46C737.817 262.24 745.465 255.917 750.333 247.606C755.201 239.295 756.976 229.532 755.344 220.04C753.712 210.547 748.779 201.937 741.416 195.729C734.052 189.52 724.731 186.114 715.1 186.11C715.09 176.111 711.413 166.464 704.766 158.995C698.119 151.525 688.963 146.753 679.034 145.583C669.104 144.412 659.089 146.923 650.887 152.642C642.685 158.36 636.865 166.888 634.53 176.61C634.16 176.61 633.79 176.61 633.41 176.61C633.455 166.408 629.68 156.559 622.828 149C615.976 141.441 606.543 136.721 596.386 135.768C586.228 134.815 576.082 137.698 567.943 143.85C559.805 150.002 554.263 158.978 552.41 169.01C546.386 164.276 539.152 161.332 531.534 160.515C523.916 159.698 516.221 161.041 509.331 164.39C502.44 167.74 496.63 172.96 492.567 179.456C488.503 185.951 486.348 193.458 486.35 201.12C477.559 201.125 469.004 203.966 461.957 209.222C454.91 214.478 449.747 221.867 447.235 230.292C444.724 238.716 444.997 247.727 448.016 255.983C451.035 264.24 456.637 271.302 463.99 276.12C463.469 278.755 463.205 281.434 463.2 284.12C456.931 284.115 450.745 285.552 445.121 288.321C439.497 291.09 434.586 295.117 430.767 300.088C426.949 305.06 424.326 310.844 423.102 316.992C421.878 323.14 422.085 329.487 423.707 335.543C425.33 341.598 428.324 347.198 432.458 351.911C436.593 356.623 441.756 360.32 447.548 362.717C453.341 365.114 459.608 366.145 465.863 365.731C472.118 365.317 478.194 363.469 483.62 360.33C489.828 363.92 496.873 365.811 504.045 365.811C511.217 365.811 518.262 363.92 524.47 360.33C532.035 364.705 540.804 366.534 549.487 365.55C558.17 364.565 566.307 360.818 572.7 354.86C573.41 354.86 574.12 354.91 574.84 354.91C582.01 354.917 589.054 353.03 595.26 349.44C604.402 354.737 615.244 356.278 625.5 353.74C631.895 358.469 639.532 361.227 647.474 361.675C655.415 362.123 663.314 360.241 670.2 356.26C676.407 359.849 683.45 361.739 690.62 361.739C697.79 361.739 704.833 359.849 711.04 356.26C716.465 359.391 722.537 361.233 728.787 361.643C735.038 362.052 741.298 361.018 747.085 358.622C752.872 356.225 758.03 352.529 762.161 347.82C766.291 343.111 769.283 337.515 770.905 331.465C772.526 325.415 772.735 319.073 771.514 312.929C770.293 306.786 767.675 301.005 763.863 296.035C760.051 291.065 755.147 287.038 749.53 284.266C743.913 281.495 737.734 280.052 731.47 280.05H731.44ZM544.92 284.14C544.915 282.384 544.798 280.631 544.57 278.89C545.57 278.39 546.65 277.89 547.64 277.3C549.279 278.24 550.979 279.069 552.73 279.78C550.711 281.081 548.811 282.557 547.05 284.19C546.35 284.16 545.63 284.14 544.92 284.14V284.14Z" fill="black"/>
<path d="M870.3 506.05C870.3 483.5 849.58 465.21 824.01 465.21C798.44 465.21 777.73 483.5 777.73 506.05C752.16 506.05 731.44 524.34 731.44 546.9C731.44 569.46 752.16 587.74 777.73 587.74C785.771 587.76 793.701 585.872 800.87 582.23C808.053 585.833 815.979 587.71 824.015 587.71C832.051 587.71 839.977 585.833 847.16 582.23C854.331 585.861 862.262 587.739 870.3 587.71C895.87 587.71 916.59 569.43 916.59 546.87C916.59 524.31 895.87 506.05 870.3 506.05Z" fill="black"/>
<path d="M719.51 406.489C719.595 401.071 718.601 395.691 716.586 390.661C714.572 385.631 711.577 381.053 707.775 377.192C703.974 373.33 699.443 370.264 694.445 368.171C689.447 366.078 684.083 365 678.665 365C673.247 365 667.883 366.078 662.885 368.171C657.887 370.264 653.356 373.33 649.555 377.192C645.753 381.053 642.758 385.631 640.744 390.661C638.729 395.691 637.735 401.071 637.82 406.489C631.557 406.492 625.38 407.935 619.764 410.707C614.148 413.479 609.245 417.505 605.434 422.475C601.623 427.444 599.005 433.223 597.784 439.365C596.563 445.508 596.771 451.849 598.391 457.898C600.012 463.947 603.002 469.542 607.13 474.252C611.259 478.961 616.415 482.657 622.2 485.056C627.985 487.454 634.244 488.49 640.493 488.083C646.743 487.676 652.815 485.837 658.24 482.709C664.449 486.293 671.491 488.179 678.66 488.179C685.829 488.179 692.871 486.293 699.08 482.709C704.505 485.841 710.577 487.682 716.827 488.092C723.078 488.501 729.338 487.468 735.125 485.071C740.912 482.674 746.07 478.978 750.201 474.269C754.331 469.56 757.323 463.964 758.945 457.914C760.566 451.864 760.775 445.522 759.554 439.378C758.333 433.235 755.715 427.454 751.903 422.484C748.091 417.514 743.187 413.487 737.57 410.716C731.953 407.944 725.774 406.501 719.51 406.499V406.489Z" fill="black"/>
<path d="M563.29 403.84C563.29 381.28 539.51 363 510.19 363C480.87 363 457.09 381.28 457.09 403.84C427.77 403.84 404 422.13 404 444.68C404 467.23 427.77 485.53 457.09 485.53C466.226 485.579 475.27 483.712 483.64 480.05C492.025 483.665 501.059 485.53 510.19 485.53C519.321 485.53 528.355 483.665 536.74 480.05C545.11 483.712 554.154 485.579 563.29 485.53C592.61 485.53 616.38 467.24 616.38 444.68C616.38 422.12 592.61 403.84 563.29 403.84Z" fill="black"/>
<path d="M453.7 526.48C453.788 520.703 452.725 514.967 450.575 509.605C448.425 504.243 445.23 499.362 441.176 495.246C437.122 491.13 432.29 487.861 426.961 485.63C421.632 483.399 415.912 482.25 410.135 482.25C404.358 482.25 398.638 483.399 393.309 485.63C387.98 487.861 383.148 491.13 379.094 495.246C375.04 499.362 371.845 504.243 369.695 509.605C367.545 514.967 366.482 520.703 366.57 526.48C359.885 526.476 353.288 528.01 347.291 530.964C341.294 533.918 336.056 538.213 331.985 543.515C327.914 548.818 325.117 554.986 323.812 561.543C322.506 568.099 322.727 574.868 324.457 581.326C326.188 587.784 329.381 593.756 333.789 598.782C338.198 603.808 343.704 607.752 349.881 610.308C356.058 612.865 362.741 613.966 369.411 613.525C376.082 613.085 382.562 611.116 388.35 607.77C394.973 611.596 402.486 613.61 410.135 613.61C417.784 613.61 425.297 611.596 431.92 607.77C437.707 611.109 444.183 613.072 450.85 613.507C457.516 613.943 464.194 612.839 470.365 610.282C476.537 607.724 482.038 603.782 486.442 598.758C490.847 593.735 494.037 587.766 495.766 581.313C497.495 574.86 497.716 568.096 496.413 561.544C495.11 554.991 492.317 548.827 488.251 543.526C484.185 538.226 478.954 533.931 472.963 530.976C466.971 528.02 460.381 526.482 453.7 526.48V526.48Z" fill="black"/>
<path opacity="0.1" d="M453.7 526.48C453.788 520.703 452.725 514.967 450.575 509.605C448.425 504.243 445.23 499.362 441.176 495.246C437.122 491.13 432.29 487.861 426.961 485.63C421.632 483.399 415.912 482.25 410.135 482.25C404.358 482.25 398.638 483.399 393.309 485.63C387.98 487.861 383.148 491.13 379.094 495.246C375.04 499.362 371.845 504.243 369.695 509.605C367.545 514.967 366.482 520.703 366.57 526.48C359.885 526.476 353.288 528.01 347.291 530.964C341.294 533.918 336.056 538.213 331.985 543.515C327.914 548.818 325.117 554.986 323.812 561.543C322.506 568.099 322.727 574.868 324.457 581.326C326.188 587.784 329.381 593.756 333.789 598.782C338.198 603.808 343.704 607.752 349.881 610.308C356.058 612.865 362.741 613.966 369.411 613.525C376.082 613.085 382.562 611.116 388.35 607.77C394.973 611.596 402.486 613.61 410.135 613.61C417.784 613.61 425.297 611.596 431.92 607.77C437.707 611.109 444.183 613.072 450.85 613.507C457.516 613.943 464.194 612.839 470.365 610.282C476.537 607.724 482.038 603.782 486.442 598.758C490.847 593.735 494.037 587.766 495.766 581.313C497.495 574.86 497.716 568.096 496.413 561.544C495.11 554.991 492.317 548.827 488.251 543.526C484.185 538.226 478.954 533.931 472.963 530.976C466.971 528.02 460.381 526.482 453.7 526.48V526.48Z" fill="black"/>
<path d="M450.98 527.84C451.065 522.422 450.071 517.042 448.056 512.012C446.042 506.982 443.047 502.404 439.245 498.542C435.444 494.681 430.913 491.615 425.915 489.522C420.917 487.429 415.553 486.351 410.135 486.351C404.717 486.351 399.353 487.429 394.355 489.522C389.357 491.615 384.826 494.681 381.025 498.542C377.223 502.404 374.228 506.982 372.214 512.012C370.199 517.042 369.205 522.422 369.29 527.84C363.026 527.84 356.846 529.282 351.228 532.053C345.61 534.823 340.705 538.849 336.891 543.819C333.078 548.789 330.459 554.569 329.237 560.713C328.015 566.857 328.223 573.199 329.844 579.25C331.465 585.301 334.457 590.897 338.587 595.607C342.717 600.317 347.875 604.013 353.662 606.411C359.45 608.808 365.711 609.842 371.961 609.433C378.212 609.023 384.285 607.182 389.71 604.05C395.921 607.633 402.965 609.52 410.135 609.52C417.305 609.52 424.349 607.633 430.56 604.05C435.985 607.182 442.058 609.023 448.309 609.433C454.559 609.842 460.82 608.808 466.608 606.411C472.395 604.013 477.553 600.317 481.683 595.607C485.813 590.897 488.805 585.301 490.426 579.25C492.047 573.199 492.255 566.857 491.033 560.713C489.811 554.569 487.192 548.789 483.379 543.819C479.565 538.849 474.66 534.823 469.042 532.053C463.424 529.282 457.244 527.84 450.98 527.84V527.84Z" fill="black"/>
<path opacity="0.1" d="M578.95 195.64C588.472 195.639 597.673 199.08 604.858 205.328C612.043 211.576 616.728 220.21 618.05 229.64C618.83 224.261 618.492 218.78 617.056 213.538C615.619 208.296 613.116 203.407 609.703 199.178C606.29 194.948 602.041 191.469 597.221 188.958C592.401 186.447 587.114 184.958 581.692 184.584C576.27 184.211 570.829 184.961 565.71 186.787C560.591 188.614 555.905 191.478 551.944 195.2C547.983 198.921 544.834 203.421 542.693 208.416C540.551 213.412 539.464 218.795 539.5 224.23C539.505 226.053 539.632 227.874 539.88 229.68C541.194 220.249 545.872 211.611 553.051 205.356C560.23 199.1 569.428 195.65 578.95 195.64V195.64Z" fill="black"/>
<path opacity="0.1" d="M660.02 266.13C668.679 270.106 675.608 277.079 679.53 285.763C683.452 294.446 684.102 304.255 681.36 313.38C684.273 308.818 686.216 303.705 687.07 298.36C687.923 293.014 687.668 287.551 686.321 282.308C684.974 277.065 682.563 272.156 679.238 267.884C675.913 263.613 671.745 260.071 666.993 257.478C662.242 254.885 657.008 253.298 651.616 252.813C646.225 252.329 640.792 252.958 635.654 254.663C630.516 256.367 625.784 259.109 621.751 262.72C617.718 266.33 614.47 270.731 612.21 275.65C611.455 277.308 610.813 279.015 610.29 280.76C615.419 272.732 623.278 266.829 632.418 264.14C641.557 261.451 651.361 262.158 660.02 266.13V266.13Z" fill="black"/>
<path opacity="0.1" d="M544.3 296.08C552.959 300.056 559.888 307.029 563.81 315.713C567.732 324.396 568.382 334.205 565.64 343.33C566.619 341.794 567.494 340.193 568.26 338.54C572.57 329.033 572.939 318.206 569.287 308.427C565.635 298.649 558.259 290.714 548.772 286.36C539.285 282.005 528.46 281.585 518.665 285.19C508.869 288.796 500.9 296.134 496.5 305.6C495.745 307.258 495.103 308.965 494.58 310.71C499.709 302.684 507.566 296.783 516.703 294.094C525.841 291.406 535.642 292.111 544.3 296.08Z" fill="black"/>
<path opacity="0.1" d="M503.2 422.56C507.489 426.324 510.272 431.512 511.037 437.167C511.801 442.822 510.495 448.562 507.36 453.33C508.188 452.617 508.966 451.849 509.69 451.03C513.826 446.314 515.919 440.149 515.51 433.89C515.1 427.631 512.221 421.791 507.505 417.655C505.17 415.607 502.455 414.039 499.514 413.04C496.573 412.042 493.464 411.632 490.365 411.835C484.106 412.245 478.266 415.124 474.13 419.84C473.403 420.662 472.734 421.534 472.13 422.45C476.449 418.714 481.975 416.667 487.686 416.687C493.397 416.707 498.907 418.793 503.2 422.56Z" fill="black"/>
<path opacity="0.1" d="M874.87 531.48C879.159 535.239 881.943 540.423 882.71 546.075C883.476 551.726 882.173 557.464 879.04 562.23C879.865 561.517 880.64 560.748 881.36 559.93C883.407 557.596 884.975 554.881 885.973 551.941C886.971 549.001 887.381 545.893 887.178 542.795C886.975 539.697 886.164 536.669 884.79 533.884C883.417 531.099 881.509 528.612 879.175 526.565C876.841 524.518 874.126 522.95 871.186 521.952C868.246 520.954 865.138 520.544 862.04 520.747C858.942 520.95 855.914 521.761 853.129 523.135C850.344 524.508 847.857 526.416 845.81 528.75C845.083 529.568 844.414 530.437 843.81 531.35C848.13 527.617 853.655 525.574 859.364 525.598C865.074 525.622 870.581 527.711 874.87 531.48Z" fill="black"/>
<path opacity="0.1" d="M411.43 531.14C416.001 527.71 421.66 526.052 427.359 526.473C433.059 526.894 438.412 529.366 442.43 533.43C441.906 532.472 441.315 531.553 440.66 530.68C436.856 525.788 431.283 522.584 425.142 521.759C419 520.933 412.779 522.551 407.818 526.265C402.857 529.978 399.551 535.491 398.613 541.616C397.675 547.742 399.178 553.991 402.8 559.02C403.454 559.89 404.165 560.715 404.93 561.49C402.172 556.498 401.31 550.677 402.505 545.099C403.699 539.522 406.869 534.565 411.43 531.14V531.14Z" fill="black"/>
<path opacity="0.1" d="M686.44 442.64C691.012 439.212 696.67 437.556 702.369 437.977C708.068 438.398 713.421 440.868 717.44 444.93C716.915 443.973 716.324 443.054 715.67 442.18C713.833 439.63 711.507 437.472 708.827 435.831C706.147 434.191 703.167 433.101 700.061 432.625C696.955 432.149 693.785 432.297 690.737 433.06C687.689 433.823 684.823 435.186 682.307 437.069C679.792 438.952 677.677 441.318 676.085 444.027C674.494 446.737 673.459 449.737 673.041 452.851C672.622 455.965 672.828 459.132 673.647 462.166C674.466 465.199 675.881 468.039 677.81 470.52C678.464 471.396 679.179 472.225 679.95 473C677.19 468.007 676.327 462.186 677.519 456.607C678.712 451.028 681.88 446.068 686.44 442.64Z" fill="black"/>
<path d="M652.55 672.62C649.93 670.62 650.26 665.79 650.26 665.79C650.26 665.79 654.83 664.27 657.45 666.3C660.07 668.33 661.09 671.4 659.74 673.14C658.39 674.88 655.17 674.66 652.55 672.62Z" fill="black"/>
<path d="M643.55 677.62C640.93 675.62 641.26 670.79 641.26 670.79C641.26 670.79 645.83 669.27 648.45 671.3C651.07 673.33 652.09 676.4 650.74 678.14C649.39 679.88 646.17 679.66 643.55 677.62Z" fill="black"/>
<path d="M705.55 638.62C702.93 636.62 703.26 631.79 703.26 631.79C703.26 631.79 707.83 630.27 710.45 632.3C713.07 634.33 714.09 637.4 712.74 639.14C711.39 640.88 708.17 640.66 705.55 638.62Z" fill="black"/>
<path d="M447.87 483.98C449.92 481.38 454.73 481.76 454.73 481.76C454.73 481.76 456.19 486.35 454.13 488.95C452.07 491.55 449 492.54 447.27 491.17C445.54 489.8 445.81 486.58 447.87 483.98Z" fill="black"/>
<path opacity="0.1" d="M478 291.47C491.807 291.47 503 280.277 503 266.47C503 252.663 491.807 241.47 478 241.47C464.193 241.47 453 252.663 453 266.47C453 280.277 464.193 291.47 478 291.47Z" fill="black"/>
</svg>
